<?xml version="1.0" encoding="utf-8" standalone="no"?>
<!DOCTYPE svg PUBLIC "-//W3C//DTD SVG 1.1//EN"
  "http://www.w3.org/Graphics/SVG/1.1/DTD/svg11.dtd">
<svg xmlns:xlink="http://www.w3.org/1999/xlink" width="1080pt" height="720pt" viewBox="0 0 1080 720" xmlns="http://www.w3.org/2000/svg" version="1.1">
 <metadata>
  <rdf:RDF xmlns:dc="http://purl.org/dc/elements/1.1/" xmlns:cc="http://creativecommons.org/ns#" xmlns:rdf="http://www.w3.org/1999/02/22-rdf-syntax-ns#">
   <cc:Work>
    <dc:type rdf:resource="http://purl.org/dc/dcmitype/StillImage"/>
    <dc:date>2023-05-08T16:45:21.572188</dc:date>
    <dc:format>image/svg+xml</dc:format>
    <dc:creator>
     <cc:Agent>
      <dc:title>Matplotlib v3.6.0, https://matplotlib.org/</dc:title>
     </cc:Agent>
    </dc:creator>
   </cc:Work>
  </rdf:RDF>
 </metadata>
 <defs>
  <style type="text/css">*{stroke-linejoin: round; stroke-linecap: butt}</style>
 </defs>
 <g id="figure_1">
  <g id="patch_1">
   <path d="M 0 720 
L 1080 720 
L 1080 0 
L 0 0 
z
" style="fill: #ffffff"/>
  </g>
  <g id="axes_1">
   <g id="patch_2">
    <path d="M 135 338.4 
L 515.454545 338.4 
L 515.454545 86.4 
L 135 86.4 
z
" style="fill: #ffffff"/>
   </g>
   <g id="matplotlib.axis_1">
    <g id="xtick_1">
     <g id="line2d_1">
      <path d="M 152.293388 338.4 
L 152.293388 86.4 
" clip-path="url(#p06c96aebc1)" style="fill: none; stroke: #b0b0b0; stroke-width: 0.8; stroke-linecap: square"/>
     </g>
     <g id="line2d_2">
      <defs>
       <path id="m17ac1d3309" d="M 0 0 
L 0 3.5 
" style="stroke: #000000; stroke-width: 0.8"/>
      </defs>
      <g>
       <use xlink:href="#m17ac1d3309" x="152.293388" y="338.4" style="stroke: #000000; stroke-width: 0.8"/>
      </g>
     </g>
     <g id="text_1">
      <!-- 0 -->
      <g transform="translate(149.112138 352.998437) scale(0.1 -0.1)">
       <defs>
        <path id="DejaVuSans-30" d="M 2034 4250 
Q 1547 4250 1301 3770 
Q 1056 3291 1056 2328 
Q 1056 1369 1301 889 
Q 1547 409 2034 409 
Q 2525 409 2770 889 
Q 3016 1369 3016 2328 
Q 3016 3291 2770 3770 
Q 2525 4250 2034 4250 
z
M 2034 4750 
Q 2819 4750 3233 4129 
Q 3647 3509 3647 2328 
Q 3647 1150 3233 529 
Q 2819 -91 2034 -91 
Q 1250 -91 836 529 
Q 422 1150 422 2328 
Q 422 3509 836 4129 
Q 1250 4750 2034 4750 
z
" transform="scale(0.015625)"/>
       </defs>
       <use xlink:href="#DejaVuSans-30"/>
      </g>
     </g>
    </g>
    <g id="xtick_2">
     <g id="line2d_3">
      <path d="M 196.213105 338.4 
L 196.213105 86.4 
" clip-path="url(#p06c96aebc1)" style="fill: none; stroke: #b0b0b0; stroke-width: 0.8; stroke-linecap: square"/>
     </g>
     <g id="line2d_4">
      <g>
       <use xlink:href="#m17ac1d3309" x="196.213105" y="338.4" style="stroke: #000000; stroke-width: 0.8"/>
      </g>
     </g>
     <g id="text_2">
      <!-- 8 -->
      <g transform="translate(193.031855 352.998437) scale(0.1 -0.1)">
       <defs>
        <path id="DejaVuSans-38" d="M 2034 2216 
Q 1584 2216 1326 1975 
Q 1069 1734 1069 1313 
Q 1069 891 1326 650 
Q 1584 409 2034 409 
Q 2484 409 2743 651 
Q 3003 894 3003 1313 
Q 3003 1734 2745 1975 
Q 2488 2216 2034 2216 
z
M 1403 2484 
Q 997 2584 770 2862 
Q 544 3141 544 3541 
Q 544 4100 942 4425 
Q 1341 4750 2034 4750 
Q 2731 4750 3128 4425 
Q 3525 4100 3525 3541 
Q 3525 3141 3298 2862 
Q 3072 2584 2669 2484 
Q 3125 2378 3379 2068 
Q 3634 1759 3634 1313 
Q 3634 634 3220 271 
Q 2806 -91 2034 -91 
Q 1263 -91 848 271 
Q 434 634 434 1313 
Q 434 1759 690 2068 
Q 947 2378 1403 2484 
z
M 1172 3481 
Q 1172 3119 1398 2916 
Q 1625 2713 2034 2713 
Q 2441 2713 2670 2916 
Q 2900 3119 2900 3481 
Q 2900 3844 2670 4047 
Q 2441 4250 2034 4250 
Q 1625 4250 1398 4047 
Q 1172 3844 1172 3481 
z
" transform="scale(0.015625)"/>
       </defs>
       <use xlink:href="#DejaVuSans-38"/>
      </g>
     </g>
    </g>
    <g id="xtick_3">
     <g id="line2d_5">
      <path d="M 240.132822 338.4 
L 240.132822 86.4 
" clip-path="url(#p06c96aebc1)" style="fill: none; stroke: #b0b0b0; stroke-width: 0.8; stroke-linecap: square"/>
     </g>
     <g id="line2d_6">
      <g>
       <use xlink:href="#m17ac1d3309" x="240.132822" y="338.4" style="stroke: #000000; stroke-width: 0.8"/>
      </g>
     </g>
     <g id="text_3">
      <!-- 16 -->
      <g transform="translate(233.770322 352.998437) scale(0.1 -0.1)">
       <defs>
        <path id="DejaVuSans-31" d="M 794 531 
L 1825 531 
L 1825 4091 
L 703 3866 
L 703 4441 
L 1819 4666 
L 2450 4666 
L 2450 531 
L 3481 531 
L 3481 0 
L 794 0 
L 794 531 
z
" transform="scale(0.015625)"/>
        <path id="DejaVuSans-36" d="M 2113 2584 
Q 1688 2584 1439 2293 
Q 1191 2003 1191 1497 
Q 1191 994 1439 701 
Q 1688 409 2113 409 
Q 2538 409 2786 701 
Q 3034 994 3034 1497 
Q 3034 2003 2786 2293 
Q 2538 2584 2113 2584 
z
M 3366 4563 
L 3366 3988 
Q 3128 4100 2886 4159 
Q 2644 4219 2406 4219 
Q 1781 4219 1451 3797 
Q 1122 3375 1075 2522 
Q 1259 2794 1537 2939 
Q 1816 3084 2150 3084 
Q 2853 3084 3261 2657 
Q 3669 2231 3669 1497 
Q 3669 778 3244 343 
Q 2819 -91 2113 -91 
Q 1303 -91 875 529 
Q 447 1150 447 2328 
Q 447 3434 972 4092 
Q 1497 4750 2381 4750 
Q 2619 4750 2861 4703 
Q 3103 4656 3366 4563 
z
" transform="scale(0.015625)"/>
       </defs>
       <use xlink:href="#DejaVuSans-31"/>
       <use xlink:href="#DejaVuSans-36" x="63.623047"/>
      </g>
     </g>
    </g>
    <g id="xtick_4">
     <g id="line2d_7">
      <path d="M 284.052538 338.4 
L 284.052538 86.4 
" clip-path="url(#p06c96aebc1)" style="fill: none; stroke: #b0b0b0; stroke-width: 0.8; stroke-linecap: square"/>
     </g>
     <g id="line2d_8">
      <g>
       <use xlink:href="#m17ac1d3309" x="284.052538" y="338.4" style="stroke: #000000; stroke-width: 0.8"/>
      </g>
     </g>
     <g id="text_4">
      <!-- 24 -->
      <g transform="translate(277.690038 352.998437) scale(0.1 -0.1)">
       <defs>
        <path id="DejaVuSans-32" d="M 1228 531 
L 3431 531 
L 3431 0 
L 469 0 
L 469 531 
Q 828 903 1448 1529 
Q 2069 2156 2228 2338 
Q 2531 2678 2651 2914 
Q 2772 3150 2772 3378 
Q 2772 3750 2511 3984 
Q 2250 4219 1831 4219 
Q 1534 4219 1204 4116 
Q 875 4013 500 3803 
L 500 4441 
Q 881 4594 1212 4672 
Q 1544 4750 1819 4750 
Q 2544 4750 2975 4387 
Q 3406 4025 3406 3419 
Q 3406 3131 3298 2873 
Q 3191 2616 2906 2266 
Q 2828 2175 2409 1742 
Q 1991 1309 1228 531 
z
" transform="scale(0.015625)"/>
        <path id="DejaVuSans-34" d="M 2419 4116 
L 825 1625 
L 2419 1625 
L 2419 4116 
z
M 2253 4666 
L 3047 4666 
L 3047 1625 
L 3713 1625 
L 3713 1100 
L 3047 1100 
L 3047 0 
L 2419 0 
L 2419 1100 
L 313 1100 
L 313 1709 
L 2253 4666 
z
" transform="scale(0.015625)"/>
       </defs>
       <use xlink:href="#DejaVuSans-32"/>
       <use xlink:href="#DejaVuSans-34" x="63.623047"/>
      </g>
     </g>
    </g>
    <g id="xtick_5">
     <g id="line2d_9">
      <path d="M 327.972255 338.4 
L 327.972255 86.4 
" clip-path="url(#p06c96aebc1)" style="fill: none; stroke: #b0b0b0; stroke-width: 0.8; stroke-linecap: square"/>
     </g>
     <g id="line2d_10">
      <g>
       <use xlink:href="#m17ac1d3309" x="327.972255" y="338.4" style="stroke: #000000; stroke-width: 0.8"/>
      </g>
     </g>
     <g id="text_5">
      <!-- 32 -->
      <g transform="translate(321.609755 352.998437) scale(0.1 -0.1)">
       <defs>
        <path id="DejaVuSans-33" d="M 2597 2516 
Q 3050 2419 3304 2112 
Q 3559 1806 3559 1356 
Q 3559 666 3084 287 
Q 2609 -91 1734 -91 
Q 1441 -91 1130 -33 
Q 819 25 488 141 
L 488 750 
Q 750 597 1062 519 
Q 1375 441 1716 441 
Q 2309 441 2620 675 
Q 2931 909 2931 1356 
Q 2931 1769 2642 2001 
Q 2353 2234 1838 2234 
L 1294 2234 
L 1294 2753 
L 1863 2753 
Q 2328 2753 2575 2939 
Q 2822 3125 2822 3475 
Q 2822 3834 2567 4026 
Q 2313 4219 1838 4219 
Q 1578 4219 1281 4162 
Q 984 4106 628 3988 
L 628 4550 
Q 988 4650 1302 4700 
Q 1616 4750 1894 4750 
Q 2613 4750 3031 4423 
Q 3450 4097 3450 3541 
Q 3450 3153 3228 2886 
Q 3006 2619 2597 2516 
z
" transform="scale(0.015625)"/>
       </defs>
       <use xlink:href="#DejaVuSans-33"/>
       <use xlink:href="#DejaVuSans-32" x="63.623047"/>
      </g>
     </g>
    </g>
    <g id="xtick_6">
     <g id="line2d_11">
      <path d="M 371.891972 338.4 
L 371.891972 86.4 
" clip-path="url(#p06c96aebc1)" style="fill: none; stroke: #b0b0b0; stroke-width: 0.8; stroke-linecap: square"/>
     </g>
     <g id="line2d_12">
      <g>
       <use xlink:href="#m17ac1d3309" x="371.891972" y="338.4" style="stroke: #000000; stroke-width: 0.8"/>
      </g>
     </g>
     <g id="text_6">
      <!-- 40 -->
      <g transform="translate(365.529472 352.998437) scale(0.1 -0.1)">
       <use xlink:href="#DejaVuSans-34"/>
       <use xlink:href="#DejaVuSans-30" x="63.623047"/>
      </g>
     </g>
    </g>
    <g id="xtick_7">
     <g id="line2d_13">
      <path d="M 415.811688 338.4 
L 415.811688 86.4 
" clip-path="url(#p06c96aebc1)" style="fill: none; stroke: #b0b0b0; stroke-width: 0.8; stroke-linecap: square"/>
     </g>
     <g id="line2d_14">
      <g>
       <use xlink:href="#m17ac1d3309" x="415.811688" y="338.4" style="stroke: #000000; stroke-width: 0.8"/>
      </g>
     </g>
     <g id="text_7">
      <!-- 48 -->
      <g transform="translate(409.449188 352.998437) scale(0.1 -0.1)">
       <use xlink:href="#DejaVuSans-34"/>
       <use xlink:href="#DejaVuSans-38" x="63.623047"/>
      </g>
     </g>
    </g>
    <g id="xtick_8">
     <g id="line2d_15">
      <path d="M 459.731405 338.4 
L 459.731405 86.4 
" clip-path="url(#p06c96aebc1)" style="fill: none; stroke: #b0b0b0; stroke-width: 0.8; stroke-linecap: square"/>
     </g>
     <g id="line2d_16">
      <g>
       <use xlink:href="#m17ac1d3309" x="459.731405" y="338.4" style="stroke: #000000; stroke-width: 0.8"/>
      </g>
     </g>
     <g id="text_8">
      <!-- 56 -->
      <g transform="translate(453.368905 352.998437) scale(0.1 -0.1)">
       <defs>
        <path id="DejaVuSans-35" d="M 691 4666 
L 3169 4666 
L 3169 4134 
L 1269 4134 
L 1269 2991 
Q 1406 3038 1543 3061 
Q 1681 3084 1819 3084 
Q 2600 3084 3056 2656 
Q 3513 2228 3513 1497 
Q 3513 744 3044 326 
Q 2575 -91 1722 -91 
Q 1428 -91 1123 -41 
Q 819 9 494 109 
L 494 744 
Q 775 591 1075 516 
Q 1375 441 1709 441 
Q 2250 441 2565 725 
Q 2881 1009 2881 1497 
Q 2881 1984 2565 2268 
Q 2250 2553 1709 2553 
Q 1456 2553 1204 2497 
Q 953 2441 691 2322 
L 691 4666 
z
" transform="scale(0.015625)"/>
       </defs>
       <use xlink:href="#DejaVuSans-35"/>
       <use xlink:href="#DejaVuSans-36" x="63.623047"/>
      </g>
     </g>
    </g>
    <g id="text_9">
     <!-- Tempo [bit] -->
     <g transform="translate(296.828835 366.676562) scale(0.1 -0.1)">
      <defs>
       <path id="DejaVuSans-54" d="M -19 4666 
L 3928 4666 
L 3928 4134 
L 2272 4134 
L 2272 0 
L 1638 0 
L 1638 4134 
L -19 4134 
L -19 4666 
z
" transform="scale(0.015625)"/>
       <path id="DejaVuSans-65" d="M 3597 1894 
L 3597 1613 
L 953 1613 
Q 991 1019 1311 708 
Q 1631 397 2203 397 
Q 2534 397 2845 478 
Q 3156 559 3463 722 
L 3463 178 
Q 3153 47 2828 -22 
Q 2503 -91 2169 -91 
Q 1331 -91 842 396 
Q 353 884 353 1716 
Q 353 2575 817 3079 
Q 1281 3584 2069 3584 
Q 2775 3584 3186 3129 
Q 3597 2675 3597 1894 
z
M 3022 2063 
Q 3016 2534 2758 2815 
Q 2500 3097 2075 3097 
Q 1594 3097 1305 2825 
Q 1016 2553 972 2059 
L 3022 2063 
z
" transform="scale(0.015625)"/>
       <path id="DejaVuSans-6d" d="M 3328 2828 
Q 3544 3216 3844 3400 
Q 4144 3584 4550 3584 
Q 5097 3584 5394 3201 
Q 5691 2819 5691 2113 
L 5691 0 
L 5113 0 
L 5113 2094 
Q 5113 2597 4934 2840 
Q 4756 3084 4391 3084 
Q 3944 3084 3684 2787 
Q 3425 2491 3425 1978 
L 3425 0 
L 2847 0 
L 2847 2094 
Q 2847 2600 2669 2842 
Q 2491 3084 2119 3084 
Q 1678 3084 1418 2786 
Q 1159 2488 1159 1978 
L 1159 0 
L 581 0 
L 581 3500 
L 1159 3500 
L 1159 2956 
Q 1356 3278 1631 3431 
Q 1906 3584 2284 3584 
Q 2666 3584 2933 3390 
Q 3200 3197 3328 2828 
z
" transform="scale(0.015625)"/>
       <path id="DejaVuSans-70" d="M 1159 525 
L 1159 -1331 
L 581 -1331 
L 581 3500 
L 1159 3500 
L 1159 2969 
Q 1341 3281 1617 3432 
Q 1894 3584 2278 3584 
Q 2916 3584 3314 3078 
Q 3713 2572 3713 1747 
Q 3713 922 3314 415 
Q 2916 -91 2278 -91 
Q 1894 -91 1617 61 
Q 1341 213 1159 525 
z
M 3116 1747 
Q 3116 2381 2855 2742 
Q 2594 3103 2138 3103 
Q 1681 3103 1420 2742 
Q 1159 2381 1159 1747 
Q 1159 1113 1420 752 
Q 1681 391 2138 391 
Q 2594 391 2855 752 
Q 3116 1113 3116 1747 
z
" transform="scale(0.015625)"/>
       <path id="DejaVuSans-6f" d="M 1959 3097 
Q 1497 3097 1228 2736 
Q 959 2375 959 1747 
Q 959 1119 1226 758 
Q 1494 397 1959 397 
Q 2419 397 2687 759 
Q 2956 1122 2956 1747 
Q 2956 2369 2687 2733 
Q 2419 3097 1959 3097 
z
M 1959 3584 
Q 2709 3584 3137 3096 
Q 3566 2609 3566 1747 
Q 3566 888 3137 398 
Q 2709 -91 1959 -91 
Q 1206 -91 779 398 
Q 353 888 353 1747 
Q 353 2609 779 3096 
Q 1206 3584 1959 3584 
z
" transform="scale(0.015625)"/>
       <path id="DejaVuSans-20" transform="scale(0.015625)"/>
       <path id="DejaVuSans-5b" d="M 550 4863 
L 1875 4863 
L 1875 4416 
L 1125 4416 
L 1125 -397 
L 1875 -397 
L 1875 -844 
L 550 -844 
L 550 4863 
z
" transform="scale(0.015625)"/>
       <path id="DejaVuSans-62" d="M 3116 1747 
Q 3116 2381 2855 2742 
Q 2594 3103 2138 3103 
Q 1681 3103 1420 2742 
Q 1159 2381 1159 1747 
Q 1159 1113 1420 752 
Q 1681 391 2138 391 
Q 2594 391 2855 752 
Q 3116 1113 3116 1747 
z
M 1159 2969 
Q 1341 3281 1617 3432 
Q 1894 3584 2278 3584 
Q 2916 3584 3314 3078 
Q 3713 2572 3713 1747 
Q 3713 922 3314 415 
Q 2916 -91 2278 -91 
Q 1894 -91 1617 61 
Q 1341 213 1159 525 
L 1159 0 
L 581 0 
L 581 4863 
L 1159 4863 
L 1159 2969 
z
" transform="scale(0.015625)"/>
       <path id="DejaVuSans-69" d="M 603 3500 
L 1178 3500 
L 1178 0 
L 603 0 
L 603 3500 
z
M 603 4863 
L 1178 4863 
L 1178 4134 
L 603 4134 
L 603 4863 
z
" transform="scale(0.015625)"/>
       <path id="DejaVuSans-74" d="M 1172 4494 
L 1172 3500 
L 2356 3500 
L 2356 3053 
L 1172 3053 
L 1172 1153 
Q 1172 725 1289 603 
Q 1406 481 1766 481 
L 2356 481 
L 2356 0 
L 1766 0 
Q 1100 0 847 248 
Q 594 497 594 1153 
L 594 3053 
L 172 3053 
L 172 3500 
L 594 3500 
L 594 4494 
L 1172 4494 
z
" transform="scale(0.015625)"/>
       <path id="DejaVuSans-5d" d="M 1947 4863 
L 1947 -844 
L 622 -844 
L 622 -397 
L 1369 -397 
L 1369 4416 
L 622 4416 
L 622 4863 
L 1947 4863 
z
" transform="scale(0.015625)"/>
      </defs>
      <use xlink:href="#DejaVuSans-54"/>
      <use xlink:href="#DejaVuSans-65" x="44.083984"/>
      <use xlink:href="#DejaVuSans-6d" x="105.607422"/>
      <use xlink:href="#DejaVuSans-70" x="203.019531"/>
      <use xlink:href="#DejaVuSans-6f" x="266.496094"/>
      <use xlink:href="#DejaVuSans-20" x="327.677734"/>
      <use xlink:href="#DejaVuSans-5b" x="359.464844"/>
      <use xlink:href="#DejaVuSans-62" x="398.478516"/>
      <use xlink:href="#DejaVuSans-69" x="461.955078"/>
      <use xlink:href="#DejaVuSans-74" x="489.738281"/>
      <use xlink:href="#DejaVuSans-5d" x="528.947266"/>
     </g>
    </g>
   </g>
   <g id="matplotlib.axis_2">
    <g id="ytick_1">
     <g id="line2d_17">
      <path d="M 135 326.945455 
L 515.454545 326.945455 
" clip-path="url(#p06c96aebc1)" style="fill: none; stroke: #b0b0b0; stroke-width: 0.8; stroke-linecap: square"/>
     </g>
     <g id="line2d_18">
      <defs>
       <path id="mf0351ac7e5" d="M 0 0 
L -3.5 0 
" style="stroke: #000000; stroke-width: 0.8"/>
      </defs>
      <g>
       <use xlink:href="#mf0351ac7e5" x="135" y="326.945455" style="stroke: #000000; stroke-width: 0.8"/>
      </g>
     </g>
     <g id="text_10">
      <!-- 0.0 -->
      <g transform="translate(112.096875 330.744673) scale(0.1 -0.1)">
       <defs>
        <path id="DejaVuSans-2e" d="M 684 794 
L 1344 794 
L 1344 0 
L 684 0 
L 684 794 
z
" transform="scale(0.015625)"/>
       </defs>
       <use xlink:href="#DejaVuSans-30"/>
       <use xlink:href="#DejaVuSans-2e" x="63.623047"/>
       <use xlink:href="#DejaVuSans-30" x="95.410156"/>
      </g>
     </g>
    </g>
    <g id="ytick_2">
     <g id="line2d_19">
      <path d="M 135 281.127273 
L 515.454545 281.127273 
" clip-path="url(#p06c96aebc1)" style="fill: none; stroke: #b0b0b0; stroke-width: 0.8; stroke-linecap: square"/>
     </g>
     <g id="line2d_20">
      <g>
       <use xlink:href="#mf0351ac7e5" x="135" y="281.127273" style="stroke: #000000; stroke-width: 0.8"/>
      </g>
     </g>
     <g id="text_11">
      <!-- 0.2 -->
      <g transform="translate(112.096875 284.926491) scale(0.1 -0.1)">
       <use xlink:href="#DejaVuSans-30"/>
       <use xlink:href="#DejaVuSans-2e" x="63.623047"/>
       <use xlink:href="#DejaVuSans-32" x="95.410156"/>
      </g>
     </g>
    </g>
    <g id="ytick_3">
     <g id="line2d_21">
      <path d="M 135 235.309091 
L 515.454545 235.309091 
" clip-path="url(#p06c96aebc1)" style="fill: none; stroke: #b0b0b0; stroke-width: 0.8; stroke-linecap: square"/>
     </g>
     <g id="line2d_22">
      <g>
       <use xlink:href="#mf0351ac7e5" x="135" y="235.309091" style="stroke: #000000; stroke-width: 0.8"/>
      </g>
     </g>
     <g id="text_12">
      <!-- 0.4 -->
      <g transform="translate(112.096875 239.10831) scale(0.1 -0.1)">
       <use xlink:href="#DejaVuSans-30"/>
       <use xlink:href="#DejaVuSans-2e" x="63.623047"/>
       <use xlink:href="#DejaVuSans-34" x="95.410156"/>
      </g>
     </g>
    </g>
    <g id="ytick_4">
     <g id="line2d_23">
      <path d="M 135 189.490909 
L 515.454545 189.490909 
" clip-path="url(#p06c96aebc1)" style="fill: none; stroke: #b0b0b0; stroke-width: 0.8; stroke-linecap: square"/>
     </g>
     <g id="line2d_24">
      <g>
       <use xlink:href="#mf0351ac7e5" x="135" y="189.490909" style="stroke: #000000; stroke-width: 0.8"/>
      </g>
     </g>
     <g id="text_13">
      <!-- 0.6 -->
      <g transform="translate(112.096875 193.290128) scale(0.1 -0.1)">
       <use xlink:href="#DejaVuSans-30"/>
       <use xlink:href="#DejaVuSans-2e" x="63.623047"/>
       <use xlink:href="#DejaVuSans-36" x="95.410156"/>
      </g>
     </g>
    </g>
    <g id="ytick_5">
     <g id="line2d_25">
      <path d="M 135 143.672727 
L 515.454545 143.672727 
" clip-path="url(#p06c96aebc1)" style="fill: none; stroke: #b0b0b0; stroke-width: 0.8; stroke-linecap: square"/>
     </g>
     <g id="line2d_26">
      <g>
       <use xlink:href="#mf0351ac7e5" x="135" y="143.672727" style="stroke: #000000; stroke-width: 0.8"/>
      </g>
     </g>
     <g id="text_14">
      <!-- 0.8 -->
      <g transform="translate(112.096875 147.471946) scale(0.1 -0.1)">
       <use xlink:href="#DejaVuSans-30"/>
       <use xlink:href="#DejaVuSans-2e" x="63.623047"/>
       <use xlink:href="#DejaVuSans-38" x="95.410156"/>
      </g>
     </g>
    </g>
    <g id="ytick_6">
     <g id="line2d_27">
      <path d="M 135 97.854545 
L 515.454545 97.854545 
" clip-path="url(#p06c96aebc1)" style="fill: none; stroke: #b0b0b0; stroke-width: 0.8; stroke-linecap: square"/>
     </g>
     <g id="line2d_28">
      <g>
       <use xlink:href="#mf0351ac7e5" x="135" y="97.854545" style="stroke: #000000; stroke-width: 0.8"/>
      </g>
     </g>
     <g id="text_15">
      <!-- 1.0 -->
      <g transform="translate(112.096875 101.653764) scale(0.1 -0.1)">
       <use xlink:href="#DejaVuSans-31"/>
       <use xlink:href="#DejaVuSans-2e" x="63.623047"/>
       <use xlink:href="#DejaVuSans-30" x="95.410156"/>
      </g>
     </g>
    </g>
    <g id="text_16">
     <!-- Amplitude [V] -->
     <g transform="translate(106.017187 246.933594) rotate(-90) scale(0.1 -0.1)">
      <defs>
       <path id="DejaVuSans-41" d="M 2188 4044 
L 1331 1722 
L 3047 1722 
L 2188 4044 
z
M 1831 4666 
L 2547 4666 
L 4325 0 
L 3669 0 
L 3244 1197 
L 1141 1197 
L 716 0 
L 50 0 
L 1831 4666 
z
" transform="scale(0.015625)"/>
       <path id="DejaVuSans-6c" d="M 603 4863 
L 1178 4863 
L 1178 0 
L 603 0 
L 603 4863 
z
" transform="scale(0.015625)"/>
       <path id="DejaVuSans-75" d="M 544 1381 
L 544 3500 
L 1119 3500 
L 1119 1403 
Q 1119 906 1312 657 
Q 1506 409 1894 409 
Q 2359 409 2629 706 
Q 2900 1003 2900 1516 
L 2900 3500 
L 3475 3500 
L 3475 0 
L 2900 0 
L 2900 538 
Q 2691 219 2414 64 
Q 2138 -91 1772 -91 
Q 1169 -91 856 284 
Q 544 659 544 1381 
z
M 1991 3584 
L 1991 3584 
z
" transform="scale(0.015625)"/>
       <path id="DejaVuSans-64" d="M 2906 2969 
L 2906 4863 
L 3481 4863 
L 3481 0 
L 2906 0 
L 2906 525 
Q 2725 213 2448 61 
Q 2172 -91 1784 -91 
Q 1150 -91 751 415 
Q 353 922 353 1747 
Q 353 2572 751 3078 
Q 1150 3584 1784 3584 
Q 2172 3584 2448 3432 
Q 2725 3281 2906 2969 
z
M 947 1747 
Q 947 1113 1208 752 
Q 1469 391 1925 391 
Q 2381 391 2643 752 
Q 2906 1113 2906 1747 
Q 2906 2381 2643 2742 
Q 2381 3103 1925 3103 
Q 1469 3103 1208 2742 
Q 947 2381 947 1747 
z
" transform="scale(0.015625)"/>
       <path id="DejaVuSans-56" d="M 1831 0 
L 50 4666 
L 709 4666 
L 2188 738 
L 3669 4666 
L 4325 4666 
L 2547 0 
L 1831 0 
z
" transform="scale(0.015625)"/>
      </defs>
      <use xlink:href="#DejaVuSans-41"/>
      <use xlink:href="#DejaVuSans-6d" x="68.408203"/>
      <use xlink:href="#DejaVuSans-70" x="165.820312"/>
      <use xlink:href="#DejaVuSans-6c" x="229.296875"/>
      <use xlink:href="#DejaVuSans-69" x="257.080078"/>
      <use xlink:href="#DejaVuSans-74" x="284.863281"/>
      <use xlink:href="#DejaVuSans-75" x="324.072266"/>
      <use xlink:href="#DejaVuSans-64" x="387.451172"/>
      <use xlink:href="#DejaVuSans-65" x="450.927734"/>
      <use xlink:href="#DejaVuSans-20" x="512.451172"/>
      <use xlink:href="#DejaVuSans-5b" x="544.238281"/>
      <use xlink:href="#DejaVuSans-56" x="583.251953"/>
      <use xlink:href="#DejaVuSans-5d" x="651.660156"/>
     </g>
    </g>
   </g>
   <g id="line2d_29">
    <path d="M 152.293388 97.854545 
L 152.293388 326.945455 
L 157.783353 326.945455 
L 157.783353 326.945455 
L 163.273318 326.945455 
L 163.273318 326.945455 
L 168.763282 326.945455 
L 168.763282 326.945455 
L 174.253247 326.945455 
L 174.253247 326.945455 
L 179.743211 326.945455 
L 179.743211 326.945455 
L 185.233176 326.945455 
L 185.233176 326.945455 
L 190.72314 326.945455 
L 190.72314 97.854545 
L 196.213105 97.854545 
L 196.213105 326.945455 
L 201.70307 326.945455 
L 201.70307 326.945455 
L 207.193034 326.945455 
L 207.193034 326.945455 
L 212.682999 326.945455 
L 212.682999 97.854545 
L 218.172963 97.854545 
L 218.172963 326.945455 
L 223.662928 326.945455 
L 223.662928 97.854545 
L 229.152893 97.854545 
L 229.152893 326.945455 
L 234.642857 326.945455 
L 234.642857 97.854545 
L 240.132822 97.854545 
L 240.132822 326.945455 
L 245.622786 326.945455 
L 245.622786 326.945455 
L 251.112751 326.945455 
L 251.112751 97.854545 
L 256.602715 97.854545 
L 256.602715 326.945455 
L 262.09268 326.945455 
L 262.09268 97.854545 
L 267.582645 97.854545 
L 267.582645 326.945455 
L 273.072609 326.945455 
L 273.072609 326.945455 
L 278.562574 326.945455 
L 278.562574 97.854545 
L 284.052538 97.854545 
L 284.052538 326.945455 
L 289.542503 326.945455 
L 289.542503 326.945455 
L 295.032468 326.945455 
L 295.032468 97.854545 
L 300.522432 97.854545 
L 300.522432 97.854545 
L 306.012397 97.854545 
L 306.012397 97.854545 
L 311.502361 97.854545 
L 311.502361 326.945455 
L 316.992326 326.945455 
L 316.992326 97.854545 
L 322.48229 97.854545 
L 322.48229 97.854545 
L 327.972255 97.854545 
L 327.972255 326.945455 
L 333.46222 326.945455 
L 333.46222 97.854545 
L 338.952184 97.854545 
L 338.952184 326.945455 
L 344.442149 326.945455 
L 344.442149 326.945455 
L 349.932113 326.945455 
L 349.932113 97.854545 
L 355.422078 97.854545 
L 355.422078 97.854545 
L 360.912043 97.854545 
L 360.912043 97.854545 
L 366.402007 97.854545 
L 366.402007 97.854545 
L 371.891972 97.854545 
L 371.891972 326.945455 
L 377.381936 326.945455 
L 377.381936 97.854545 
L 382.871901 97.854545 
L 382.871901 97.854545 
L 388.361865 97.854545 
L 388.361865 326.945455 
L 393.85183 326.945455 
L 393.85183 326.945455 
L 399.341795 326.945455 
L 399.341795 326.945455 
L 404.831759 326.945455 
L 404.831759 326.945455 
L 410.321724 326.945455 
L 410.321724 97.854545 
L 415.811688 97.854545 
L 415.811688 326.945455 
L 421.301653 326.945455 
L 421.301653 97.854545 
L 426.791617 97.854545 
L 426.791617 97.854545 
L 432.281582 97.854545 
L 432.281582 97.854545 
L 437.771547 97.854545 
L 437.771547 326.945455 
L 443.261511 326.945455 
L 443.261511 97.854545 
L 448.751476 97.854545 
L 448.751476 326.945455 
L 454.24144 326.945455 
L 454.24144 97.854545 
L 459.731405 97.854545 
L 459.731405 97.854545 
L 465.22137 97.854545 
L 465.22137 326.945455 
L 470.711334 326.945455 
L 470.711334 326.945455 
L 476.201299 326.945455 
L 476.201299 326.945455 
L 481.691263 326.945455 
L 481.691263 326.945455 
L 487.181228 326.945455 
L 487.181228 97.854545 
L 492.671192 97.854545 
L 492.671192 326.945455 
L 498.161157 326.945455 
" clip-path="url(#p06c96aebc1)" style="fill: none; stroke: #ff0000; stroke-width: 2; stroke-linecap: square"/>
   </g>
   <g id="patch_3">
    <path d="M 135 338.4 
L 135 86.4 
" style="fill: none; stroke: #000000; stroke-width: 0.8; stroke-linejoin: miter; stroke-linecap: square"/>
   </g>
   <g id="patch_4">
    <path d="M 515.454545 338.4 
L 515.454545 86.4 
" style="fill: none; stroke: #000000; stroke-width: 0.8; stroke-linejoin: miter; stroke-linecap: square"/>
   </g>
   <g id="patch_5">
    <path d="M 135 338.4 
L 515.454545 338.4 
" style="fill: none; stroke: #000000; stroke-width: 0.8; stroke-linejoin: miter; stroke-linecap: square"/>
   </g>
   <g id="patch_6">
    <path d="M 135 86.4 
L 515.454545 86.4 
" style="fill: none; stroke: #000000; stroke-width: 0.8; stroke-linejoin: miter; stroke-linecap: square"/>
   </g>
   <g id="text_17">
    <!-- Modulação senoide 100 Hz -->
    <g transform="translate(244.48321 80.4) scale(0.12 -0.12)">
     <defs>
      <path id="DejaVuSans-4d" d="M 628 4666 
L 1569 4666 
L 2759 1491 
L 3956 4666 
L 4897 4666 
L 4897 0 
L 4281 0 
L 4281 4097 
L 3078 897 
L 2444 897 
L 1241 4097 
L 1241 0 
L 628 0 
L 628 4666 
z
" transform="scale(0.015625)"/>
      <path id="DejaVuSans-61" d="M 2194 1759 
Q 1497 1759 1228 1600 
Q 959 1441 959 1056 
Q 959 750 1161 570 
Q 1363 391 1709 391 
Q 2188 391 2477 730 
Q 2766 1069 2766 1631 
L 2766 1759 
L 2194 1759 
z
M 3341 1997 
L 3341 0 
L 2766 0 
L 2766 531 
Q 2569 213 2275 61 
Q 1981 -91 1556 -91 
Q 1019 -91 701 211 
Q 384 513 384 1019 
Q 384 1609 779 1909 
Q 1175 2209 1959 2209 
L 2766 2209 
L 2766 2266 
Q 2766 2663 2505 2880 
Q 2244 3097 1772 3097 
Q 1472 3097 1187 3025 
Q 903 2953 641 2809 
L 641 3341 
Q 956 3463 1253 3523 
Q 1550 3584 1831 3584 
Q 2591 3584 2966 3190 
Q 3341 2797 3341 1997 
z
" transform="scale(0.015625)"/>
      <path id="DejaVuSans-e7" d="M 3122 3366 
L 3122 2828 
Q 2878 2963 2633 3030 
Q 2388 3097 2138 3097 
Q 1578 3097 1268 2742 
Q 959 2388 959 1747 
Q 959 1106 1268 751 
Q 1578 397 2138 397 
Q 2388 397 2633 464 
Q 2878 531 3122 666 
L 3122 134 
Q 2881 22 2623 -34 
Q 2366 -91 2075 -91 
Q 1284 -91 818 406 
Q 353 903 353 1747 
Q 353 2603 823 3093 
Q 1294 3584 2113 3584 
Q 2378 3584 2631 3529 
Q 2884 3475 3122 3366 
z
M 2311 0 
Q 2482 -194 2566 -358 
Q 2651 -522 2651 -672 
Q 2651 -950 2463 -1092 
Q 2276 -1234 1907 -1234 
Q 1764 -1234 1628 -1215 
Q 1492 -1197 1357 -1159 
L 1357 -750 
Q 1464 -803 1579 -826 
Q 1695 -850 1842 -850 
Q 2026 -850 2120 -775 
Q 2214 -700 2214 -556 
Q 2214 -463 2146 -327 
Q 2079 -191 1939 0 
L 2311 0 
z
" transform="scale(0.015625)"/>
      <path id="DejaVuSans-e3" d="M 2194 1759 
Q 1497 1759 1228 1600 
Q 959 1441 959 1056 
Q 959 750 1161 570 
Q 1363 391 1709 391 
Q 2188 391 2477 730 
Q 2766 1069 2766 1631 
L 2766 1759 
L 2194 1759 
z
M 3341 1997 
L 3341 0 
L 2766 0 
L 2766 531 
Q 2569 213 2275 61 
Q 1981 -91 1556 -91 
Q 1019 -91 701 211 
Q 384 513 384 1019 
Q 384 1609 779 1909 
Q 1175 2209 1959 2209 
L 2766 2209 
L 2766 2266 
Q 2766 2663 2505 2880 
Q 2244 3097 1772 3097 
Q 1472 3097 1187 3025 
Q 903 2953 641 2809 
L 641 3341 
Q 956 3463 1253 3523 
Q 1550 3584 1831 3584 
Q 2591 3584 2966 3190 
Q 3341 2797 3341 1997 
z
M 1844 4281 
L 1665 4453 
Q 1597 4516 1545 4545 
Q 1494 4575 1453 4575 
Q 1334 4575 1278 4461 
Q 1222 4347 1215 4091 
L 825 4091 
Q 831 4513 990 4742 
Q 1150 4972 1434 4972 
Q 1553 4972 1653 4928 
Q 1753 4884 1869 4781 
L 2047 4609 
Q 2115 4547 2167 4517 
Q 2219 4488 2259 4488 
Q 2378 4488 2434 4602 
Q 2490 4716 2497 4972 
L 2887 4972 
Q 2881 4550 2721 4320 
Q 2562 4091 2278 4091 
Q 2159 4091 2059 4134 
Q 1959 4178 1844 4281 
z
" transform="scale(0.015625)"/>
      <path id="DejaVuSans-73" d="M 2834 3397 
L 2834 2853 
Q 2591 2978 2328 3040 
Q 2066 3103 1784 3103 
Q 1356 3103 1142 2972 
Q 928 2841 928 2578 
Q 928 2378 1081 2264 
Q 1234 2150 1697 2047 
L 1894 2003 
Q 2506 1872 2764 1633 
Q 3022 1394 3022 966 
Q 3022 478 2636 193 
Q 2250 -91 1575 -91 
Q 1294 -91 989 -36 
Q 684 19 347 128 
L 347 722 
Q 666 556 975 473 
Q 1284 391 1588 391 
Q 1994 391 2212 530 
Q 2431 669 2431 922 
Q 2431 1156 2273 1281 
Q 2116 1406 1581 1522 
L 1381 1569 
Q 847 1681 609 1914 
Q 372 2147 372 2553 
Q 372 3047 722 3315 
Q 1072 3584 1716 3584 
Q 2034 3584 2315 3537 
Q 2597 3491 2834 3397 
z
" transform="scale(0.015625)"/>
      <path id="DejaVuSans-6e" d="M 3513 2113 
L 3513 0 
L 2938 0 
L 2938 2094 
Q 2938 2591 2744 2837 
Q 2550 3084 2163 3084 
Q 1697 3084 1428 2787 
Q 1159 2491 1159 1978 
L 1159 0 
L 581 0 
L 581 3500 
L 1159 3500 
L 1159 2956 
Q 1366 3272 1645 3428 
Q 1925 3584 2291 3584 
Q 2894 3584 3203 3211 
Q 3513 2838 3513 2113 
z
" transform="scale(0.015625)"/>
      <path id="DejaVuSans-48" d="M 628 4666 
L 1259 4666 
L 1259 2753 
L 3553 2753 
L 3553 4666 
L 4184 4666 
L 4184 0 
L 3553 0 
L 3553 2222 
L 1259 2222 
L 1259 0 
L 628 0 
L 628 4666 
z
" transform="scale(0.015625)"/>
      <path id="DejaVuSans-7a" d="M 353 3500 
L 3084 3500 
L 3084 2975 
L 922 459 
L 3084 459 
L 3084 0 
L 275 0 
L 275 525 
L 2438 3041 
L 353 3041 
L 353 3500 
z
" transform="scale(0.015625)"/>
     </defs>
     <use xlink:href="#DejaVuSans-4d"/>
     <use xlink:href="#DejaVuSans-6f" x="86.279297"/>
     <use xlink:href="#DejaVuSans-64" x="147.460938"/>
     <use xlink:href="#DejaVuSans-75" x="210.9375"/>
     <use xlink:href="#DejaVuSans-6c" x="274.316406"/>
     <use xlink:href="#DejaVuSans-61" x="302.099609"/>
     <use xlink:href="#DejaVuSans-e7" x="363.378906"/>
     <use xlink:href="#DejaVuSans-e3" x="418.359375"/>
     <use xlink:href="#DejaVuSans-6f" x="479.638672"/>
     <use xlink:href="#DejaVuSans-20" x="540.820312"/>
     <use xlink:href="#DejaVuSans-73" x="572.607422"/>
     <use xlink:href="#DejaVuSans-65" x="624.707031"/>
     <use xlink:href="#DejaVuSans-6e" x="686.230469"/>
     <use xlink:href="#DejaVuSans-6f" x="749.609375"/>
     <use xlink:href="#DejaVuSans-69" x="810.791016"/>
     <use xlink:href="#DejaVuSans-64" x="838.574219"/>
     <use xlink:href="#DejaVuSans-65" x="902.050781"/>
     <use xlink:href="#DejaVuSans-20" x="963.574219"/>
     <use xlink:href="#DejaVuSans-31" x="995.361328"/>
     <use xlink:href="#DejaVuSans-30" x="1058.984375"/>
     <use xlink:href="#DejaVuSans-30" x="1122.607422"/>
     <use xlink:href="#DejaVuSans-20" x="1186.230469"/>
     <use xlink:href="#DejaVuSans-48" x="1218.017578"/>
     <use xlink:href="#DejaVuSans-7a" x="1293.212891"/>
    </g>
   </g>
  </g>
  <g id="axes_2">
   <g id="patch_7">
    <path d="M 591.545455 338.4 
L 972 338.4 
L 972 86.4 
L 591.545455 86.4 
z
" style="fill: #ffffff"/>
   </g>
   <g id="matplotlib.axis_3">
    <g id="xtick_9">
     <g id="line2d_30">
      <path d="M 608.838843 338.4 
L 608.838843 86.4 
" clip-path="url(#p5ec68e0ac6)" style="fill: none; stroke: #b0b0b0; stroke-width: 0.8; stroke-linecap: square"/>
     </g>
     <g id="line2d_31">
      <g>
       <use xlink:href="#m17ac1d3309" x="608.838843" y="338.4" style="stroke: #000000; stroke-width: 0.8"/>
      </g>
     </g>
     <g id="text_18">
      <!-- 0 -->
      <g transform="translate(605.657593 352.998437) scale(0.1 -0.1)">
       <use xlink:href="#DejaVuSans-30"/>
      </g>
     </g>
    </g>
    <g id="xtick_10">
     <g id="line2d_32">
      <path d="M 652.75856 338.4 
L 652.75856 86.4 
" clip-path="url(#p5ec68e0ac6)" style="fill: none; stroke: #b0b0b0; stroke-width: 0.8; stroke-linecap: square"/>
     </g>
     <g id="line2d_33">
      <g>
       <use xlink:href="#m17ac1d3309" x="652.75856" y="338.4" style="stroke: #000000; stroke-width: 0.8"/>
      </g>
     </g>
     <g id="text_19">
      <!-- 8 -->
      <g transform="translate(649.57731 352.998437) scale(0.1 -0.1)">
       <use xlink:href="#DejaVuSans-38"/>
      </g>
     </g>
    </g>
    <g id="xtick_11">
     <g id="line2d_34">
      <path d="M 696.678276 338.4 
L 696.678276 86.4 
" clip-path="url(#p5ec68e0ac6)" style="fill: none; stroke: #b0b0b0; stroke-width: 0.8; stroke-linecap: square"/>
     </g>
     <g id="line2d_35">
      <g>
       <use xlink:href="#m17ac1d3309" x="696.678276" y="338.4" style="stroke: #000000; stroke-width: 0.8"/>
      </g>
     </g>
     <g id="text_20">
      <!-- 16 -->
      <g transform="translate(690.315776 352.998437) scale(0.1 -0.1)">
       <use xlink:href="#DejaVuSans-31"/>
       <use xlink:href="#DejaVuSans-36" x="63.623047"/>
      </g>
     </g>
    </g>
    <g id="xtick_12">
     <g id="line2d_36">
      <path d="M 740.597993 338.4 
L 740.597993 86.4 
" clip-path="url(#p5ec68e0ac6)" style="fill: none; stroke: #b0b0b0; stroke-width: 0.8; stroke-linecap: square"/>
     </g>
     <g id="line2d_37">
      <g>
       <use xlink:href="#m17ac1d3309" x="740.597993" y="338.4" style="stroke: #000000; stroke-width: 0.8"/>
      </g>
     </g>
     <g id="text_21">
      <!-- 24 -->
      <g transform="translate(734.235493 352.998437) scale(0.1 -0.1)">
       <use xlink:href="#DejaVuSans-32"/>
       <use xlink:href="#DejaVuSans-34" x="63.623047"/>
      </g>
     </g>
    </g>
    <g id="xtick_13">
     <g id="line2d_38">
      <path d="M 784.51771 338.4 
L 784.51771 86.4 
" clip-path="url(#p5ec68e0ac6)" style="fill: none; stroke: #b0b0b0; stroke-width: 0.8; stroke-linecap: square"/>
     </g>
     <g id="line2d_39">
      <g>
       <use xlink:href="#m17ac1d3309" x="784.51771" y="338.4" style="stroke: #000000; stroke-width: 0.8"/>
      </g>
     </g>
     <g id="text_22">
      <!-- 32 -->
      <g transform="translate(778.15521 352.998437) scale(0.1 -0.1)">
       <use xlink:href="#DejaVuSans-33"/>
       <use xlink:href="#DejaVuSans-32" x="63.623047"/>
      </g>
     </g>
    </g>
    <g id="xtick_14">
     <g id="line2d_40">
      <path d="M 828.437426 338.4 
L 828.437426 86.4 
" clip-path="url(#p5ec68e0ac6)" style="fill: none; stroke: #b0b0b0; stroke-width: 0.8; stroke-linecap: square"/>
     </g>
     <g id="line2d_41">
      <g>
       <use xlink:href="#m17ac1d3309" x="828.437426" y="338.4" style="stroke: #000000; stroke-width: 0.8"/>
      </g>
     </g>
     <g id="text_23">
      <!-- 40 -->
      <g transform="translate(822.074926 352.998437) scale(0.1 -0.1)">
       <use xlink:href="#DejaVuSans-34"/>
       <use xlink:href="#DejaVuSans-30" x="63.623047"/>
      </g>
     </g>
    </g>
    <g id="xtick_15">
     <g id="line2d_42">
      <path d="M 872.357143 338.4 
L 872.357143 86.4 
" clip-path="url(#p5ec68e0ac6)" style="fill: none; stroke: #b0b0b0; stroke-width: 0.8; stroke-linecap: square"/>
     </g>
     <g id="line2d_43">
      <g>
       <use xlink:href="#m17ac1d3309" x="872.357143" y="338.4" style="stroke: #000000; stroke-width: 0.8"/>
      </g>
     </g>
     <g id="text_24">
      <!-- 48 -->
      <g transform="translate(865.994643 352.998437) scale(0.1 -0.1)">
       <use xlink:href="#DejaVuSans-34"/>
       <use xlink:href="#DejaVuSans-38" x="63.623047"/>
      </g>
     </g>
    </g>
    <g id="xtick_16">
     <g id="line2d_44">
      <path d="M 916.27686 338.4 
L 916.27686 86.4 
" clip-path="url(#p5ec68e0ac6)" style="fill: none; stroke: #b0b0b0; stroke-width: 0.8; stroke-linecap: square"/>
     </g>
     <g id="line2d_45">
      <g>
       <use xlink:href="#m17ac1d3309" x="916.27686" y="338.4" style="stroke: #000000; stroke-width: 0.8"/>
      </g>
     </g>
     <g id="text_25">
      <!-- 56 -->
      <g transform="translate(909.91436 352.998437) scale(0.1 -0.1)">
       <use xlink:href="#DejaVuSans-35"/>
       <use xlink:href="#DejaVuSans-36" x="63.623047"/>
      </g>
     </g>
    </g>
    <g id="text_26">
     <!-- Tempo [bit] -->
     <g transform="translate(753.37429 366.676562) scale(0.1 -0.1)">
      <use xlink:href="#DejaVuSans-54"/>
      <use xlink:href="#DejaVuSans-65" x="44.083984"/>
      <use xlink:href="#DejaVuSans-6d" x="105.607422"/>
      <use xlink:href="#DejaVuSans-70" x="203.019531"/>
      <use xlink:href="#DejaVuSans-6f" x="266.496094"/>
      <use xlink:href="#DejaVuSans-20" x="327.677734"/>
      <use xlink:href="#DejaVuSans-5b" x="359.464844"/>
      <use xlink:href="#DejaVuSans-62" x="398.478516"/>
      <use xlink:href="#DejaVuSans-69" x="461.955078"/>
      <use xlink:href="#DejaVuSans-74" x="489.738281"/>
      <use xlink:href="#DejaVuSans-5d" x="528.947266"/>
     </g>
    </g>
   </g>
   <g id="matplotlib.axis_4">
    <g id="ytick_7">
     <g id="line2d_46">
      <path d="M 591.545455 326.945455 
L 972 326.945455 
" clip-path="url(#p5ec68e0ac6)" style="fill: none; stroke: #b0b0b0; stroke-width: 0.8; stroke-linecap: square"/>
     </g>
     <g id="line2d_47">
      <g>
       <use xlink:href="#mf0351ac7e5" x="591.545455" y="326.945455" style="stroke: #000000; stroke-width: 0.8"/>
      </g>
     </g>
     <g id="text_27">
      <!-- 0.0 -->
      <g transform="translate(568.64233 330.744673) scale(0.1 -0.1)">
       <use xlink:href="#DejaVuSans-30"/>
       <use xlink:href="#DejaVuSans-2e" x="63.623047"/>
       <use xlink:href="#DejaVuSans-30" x="95.410156"/>
      </g>
     </g>
    </g>
    <g id="ytick_8">
     <g id="line2d_48">
      <path d="M 591.545455 281.127273 
L 972 281.127273 
" clip-path="url(#p5ec68e0ac6)" style="fill: none; stroke: #b0b0b0; stroke-width: 0.8; stroke-linecap: square"/>
     </g>
     <g id="line2d_49">
      <g>
       <use xlink:href="#mf0351ac7e5" x="591.545455" y="281.127273" style="stroke: #000000; stroke-width: 0.8"/>
      </g>
     </g>
     <g id="text_28">
      <!-- 0.2 -->
      <g transform="translate(568.64233 284.926491) scale(0.1 -0.1)">
       <use xlink:href="#DejaVuSans-30"/>
       <use xlink:href="#DejaVuSans-2e" x="63.623047"/>
       <use xlink:href="#DejaVuSans-32" x="95.410156"/>
      </g>
     </g>
    </g>
    <g id="ytick_9">
     <g id="line2d_50">
      <path d="M 591.545455 235.309091 
L 972 235.309091 
" clip-path="url(#p5ec68e0ac6)" style="fill: none; stroke: #b0b0b0; stroke-width: 0.8; stroke-linecap: square"/>
     </g>
     <g id="line2d_51">
      <g>
       <use xlink:href="#mf0351ac7e5" x="591.545455" y="235.309091" style="stroke: #000000; stroke-width: 0.8"/>
      </g>
     </g>
     <g id="text_29">
      <!-- 0.4 -->
      <g transform="translate(568.64233 239.10831) scale(0.1 -0.1)">
       <use xlink:href="#DejaVuSans-30"/>
       <use xlink:href="#DejaVuSans-2e" x="63.623047"/>
       <use xlink:href="#DejaVuSans-34" x="95.410156"/>
      </g>
     </g>
    </g>
    <g id="ytick_10">
     <g id="line2d_52">
      <path d="M 591.545455 189.490909 
L 972 189.490909 
" clip-path="url(#p5ec68e0ac6)" style="fill: none; stroke: #b0b0b0; stroke-width: 0.8; stroke-linecap: square"/>
     </g>
     <g id="line2d_53">
      <g>
       <use xlink:href="#mf0351ac7e5" x="591.545455" y="189.490909" style="stroke: #000000; stroke-width: 0.8"/>
      </g>
     </g>
     <g id="text_30">
      <!-- 0.6 -->
      <g transform="translate(568.64233 193.290128) scale(0.1 -0.1)">
       <use xlink:href="#DejaVuSans-30"/>
       <use xlink:href="#DejaVuSans-2e" x="63.623047"/>
       <use xlink:href="#DejaVuSans-36" x="95.410156"/>
      </g>
     </g>
    </g>
    <g id="ytick_11">
     <g id="line2d_54">
      <path d="M 591.545455 143.672727 
L 972 143.672727 
" clip-path="url(#p5ec68e0ac6)" style="fill: none; stroke: #b0b0b0; stroke-width: 0.8; stroke-linecap: square"/>
     </g>
     <g id="line2d_55">
      <g>
       <use xlink:href="#mf0351ac7e5" x="591.545455" y="143.672727" style="stroke: #000000; stroke-width: 0.8"/>
      </g>
     </g>
     <g id="text_31">
      <!-- 0.8 -->
      <g transform="translate(568.64233 147.471946) scale(0.1 -0.1)">
       <use xlink:href="#DejaVuSans-30"/>
       <use xlink:href="#DejaVuSans-2e" x="63.623047"/>
       <use xlink:href="#DejaVuSans-38" x="95.410156"/>
      </g>
     </g>
    </g>
    <g id="ytick_12">
     <g id="line2d_56">
      <path d="M 591.545455 97.854545 
L 972 97.854545 
" clip-path="url(#p5ec68e0ac6)" style="fill: none; stroke: #b0b0b0; stroke-width: 0.8; stroke-linecap: square"/>
     </g>
     <g id="line2d_57">
      <g>
       <use xlink:href="#mf0351ac7e5" x="591.545455" y="97.854545" style="stroke: #000000; stroke-width: 0.8"/>
      </g>
     </g>
     <g id="text_32">
      <!-- 1.0 -->
      <g transform="translate(568.64233 101.653764) scale(0.1 -0.1)">
       <use xlink:href="#DejaVuSans-31"/>
       <use xlink:href="#DejaVuSans-2e" x="63.623047"/>
       <use xlink:href="#DejaVuSans-30" x="95.410156"/>
      </g>
     </g>
    </g>
    <g id="text_33">
     <!-- Amplitude [V] -->
     <g transform="translate(562.562642 246.933594) rotate(-90) scale(0.1 -0.1)">
      <use xlink:href="#DejaVuSans-41"/>
      <use xlink:href="#DejaVuSans-6d" x="68.408203"/>
      <use xlink:href="#DejaVuSans-70" x="165.820312"/>
      <use xlink:href="#DejaVuSans-6c" x="229.296875"/>
      <use xlink:href="#DejaVuSans-69" x="257.080078"/>
      <use xlink:href="#DejaVuSans-74" x="284.863281"/>
      <use xlink:href="#DejaVuSans-75" x="324.072266"/>
      <use xlink:href="#DejaVuSans-64" x="387.451172"/>
      <use xlink:href="#DejaVuSans-65" x="450.927734"/>
      <use xlink:href="#DejaVuSans-20" x="512.451172"/>
      <use xlink:href="#DejaVuSans-5b" x="544.238281"/>
      <use xlink:href="#DejaVuSans-56" x="583.251953"/>
      <use xlink:href="#DejaVuSans-5d" x="651.660156"/>
     </g>
    </g>
   </g>
   <g id="line2d_58">
    <path d="M 608.838843 97.854545 
L 608.838843 326.945455 
L 614.328808 326.945455 
L 614.328808 326.945455 
L 619.818772 326.945455 
L 619.818772 326.945455 
L 625.308737 326.945455 
L 625.308737 326.945455 
L 630.798701 326.945455 
L 630.798701 326.945455 
L 636.288666 326.945455 
L 636.288666 326.945455 
L 641.77863 326.945455 
L 641.77863 326.945455 
L 647.268595 326.945455 
L 647.268595 97.854545 
L 652.75856 97.854545 
L 652.75856 326.945455 
L 658.248524 326.945455 
L 658.248524 326.945455 
L 663.738489 326.945455 
L 663.738489 97.854545 
L 669.228453 97.854545 
L 669.228453 97.854545 
L 674.718418 97.854545 
L 674.718418 97.854545 
L 680.208383 97.854545 
L 680.208383 326.945455 
L 685.698347 326.945455 
L 685.698347 97.854545 
L 691.188312 97.854545 
L 691.188312 97.854545 
L 696.678276 97.854545 
L 696.678276 326.945455 
L 702.168241 326.945455 
L 702.168241 97.854545 
L 707.658205 97.854545 
L 707.658205 97.854545 
L 713.14817 97.854545 
L 713.14817 97.854545 
L 718.638135 97.854545 
L 718.638135 326.945455 
L 724.128099 326.945455 
L 724.128099 97.854545 
L 729.618064 97.854545 
L 729.618064 326.945455 
L 735.108028 326.945455 
L 735.108028 97.854545 
L 740.597993 97.854545 
L 740.597993 97.854545 
L 746.087957 97.854545 
L 746.087957 326.945455 
L 751.577922 326.945455 
L 751.577922 97.854545 
L 757.067887 97.854545 
L 757.067887 326.945455 
L 762.557851 326.945455 
L 762.557851 326.945455 
L 768.047816 326.945455 
L 768.047816 97.854545 
L 773.53778 97.854545 
L 773.53778 97.854545 
L 779.027745 97.854545 
L 779.027745 97.854545 
L 784.51771 97.854545 
L 784.51771 97.854545 
L 790.007674 97.854545 
L 790.007674 97.854545 
L 795.497639 97.854545 
L 795.497639 326.945455 
L 800.987603 326.945455 
L 800.987603 326.945455 
L 806.477568 326.945455 
L 806.477568 97.854545 
L 811.967532 97.854545 
L 811.967532 97.854545 
L 817.457497 97.854545 
L 817.457497 97.854545 
L 822.947462 97.854545 
L 822.947462 97.854545 
L 828.437426 97.854545 
L 828.437426 97.854545 
L 833.927391 97.854545 
L 833.927391 97.854545 
L 839.417355 97.854545 
L 839.417355 97.854545 
L 844.90732 97.854545 
L 844.90732 326.945455 
L 850.397285 326.945455 
L 850.397285 97.854545 
L 855.887249 97.854545 
L 855.887249 97.854545 
L 861.377214 97.854545 
L 861.377214 326.945455 
L 866.867178 326.945455 
L 866.867178 97.854545 
L 872.357143 97.854545 
L 872.357143 97.854545 
L 877.847107 97.854545 
L 877.847107 97.854545 
L 883.337072 97.854545 
L 883.337072 97.854545 
L 888.827037 97.854545 
L 888.827037 97.854545 
L 894.317001 97.854545 
L 894.317001 97.854545 
L 899.806966 97.854545 
L 899.806966 97.854545 
L 905.29693 97.854545 
L 905.29693 326.945455 
L 910.786895 326.945455 
L 910.786895 97.854545 
L 916.27686 97.854545 
L 916.27686 97.854545 
L 921.766824 97.854545 
L 921.766824 97.854545 
L 927.256789 97.854545 
L 927.256789 97.854545 
L 932.746753 97.854545 
L 932.746753 97.854545 
L 938.236718 97.854545 
L 938.236718 97.854545 
L 943.726682 97.854545 
L 943.726682 97.854545 
L 949.216647 97.854545 
L 949.216647 97.854545 
L 954.706612 97.854545 
" clip-path="url(#p5ec68e0ac6)" style="fill: none; stroke: #bfbf00; stroke-width: 2; stroke-linecap: square"/>
   </g>
   <g id="patch_8">
    <path d="M 591.545455 338.4 
L 591.545455 86.4 
" style="fill: none; stroke: #000000; stroke-width: 0.8; stroke-linejoin: miter; stroke-linecap: square"/>
   </g>
   <g id="patch_9">
    <path d="M 972 338.4 
L 972 86.4 
" style="fill: none; stroke: #000000; stroke-width: 0.8; stroke-linejoin: miter; stroke-linecap: square"/>
   </g>
   <g id="patch_10">
    <path d="M 591.545455 338.4 
L 972 338.4 
" style="fill: none; stroke: #000000; stroke-width: 0.8; stroke-linejoin: miter; stroke-linecap: square"/>
   </g>
   <g id="patch_11">
    <path d="M 591.545455 86.4 
L 972 86.4 
" style="fill: none; stroke: #000000; stroke-width: 0.8; stroke-linejoin: miter; stroke-linecap: square"/>
   </g>
   <g id="text_34">
    <!-- Modulação senoide 300 Hz -->
    <g transform="translate(701.028665 80.4) scale(0.12 -0.12)">
     <use xlink:href="#DejaVuSans-4d"/>
     <use xlink:href="#DejaVuSans-6f" x="86.279297"/>
     <use xlink:href="#DejaVuSans-64" x="147.460938"/>
     <use xlink:href="#DejaVuSans-75" x="210.9375"/>
     <use xlink:href="#DejaVuSans-6c" x="274.316406"/>
     <use xlink:href="#DejaVuSans-61" x="302.099609"/>
     <use xlink:href="#DejaVuSans-e7" x="363.378906"/>
     <use xlink:href="#DejaVuSans-e3" x="418.359375"/>
     <use xlink:href="#DejaVuSans-6f" x="479.638672"/>
     <use xlink:href="#DejaVuSans-20" x="540.820312"/>
     <use xlink:href="#DejaVuSans-73" x="572.607422"/>
     <use xlink:href="#DejaVuSans-65" x="624.707031"/>
     <use xlink:href="#DejaVuSans-6e" x="686.230469"/>
     <use xlink:href="#DejaVuSans-6f" x="749.609375"/>
     <use xlink:href="#DejaVuSans-69" x="810.791016"/>
     <use xlink:href="#DejaVuSans-64" x="838.574219"/>
     <use xlink:href="#DejaVuSans-65" x="902.050781"/>
     <use xlink:href="#DejaVuSans-20" x="963.574219"/>
     <use xlink:href="#DejaVuSans-33" x="995.361328"/>
     <use xlink:href="#DejaVuSans-30" x="1058.984375"/>
     <use xlink:href="#DejaVuSans-30" x="1122.607422"/>
     <use xlink:href="#DejaVuSans-20" x="1186.230469"/>
     <use xlink:href="#DejaVuSans-48" x="1218.017578"/>
     <use xlink:href="#DejaVuSans-7a" x="1293.212891"/>
    </g>
   </g>
  </g>
  <g id="axes_3">
   <g id="patch_12">
    <path d="M 135 640.8 
L 515.454545 640.8 
L 515.454545 388.8 
L 135 388.8 
z
" style="fill: #ffffff"/>
   </g>
   <g id="matplotlib.axis_5">
    <g id="xtick_17">
     <g id="line2d_59">
      <path d="M 152.293388 640.8 
L 152.293388 388.8 
" clip-path="url(#p419db9e572)" style="fill: none; stroke: #b0b0b0; stroke-width: 0.8; stroke-linecap: square"/>
     </g>
     <g id="line2d_60">
      <g>
       <use xlink:href="#m17ac1d3309" x="152.293388" y="640.8" style="stroke: #000000; stroke-width: 0.8"/>
      </g>
     </g>
     <g id="text_35">
      <!-- 0 -->
      <g transform="translate(149.112138 655.398438) scale(0.1 -0.1)">
       <use xlink:href="#DejaVuSans-30"/>
      </g>
     </g>
    </g>
    <g id="xtick_18">
     <g id="line2d_61">
      <path d="M 196.213105 640.8 
L 196.213105 388.8 
" clip-path="url(#p419db9e572)" style="fill: none; stroke: #b0b0b0; stroke-width: 0.8; stroke-linecap: square"/>
     </g>
     <g id="line2d_62">
      <g>
       <use xlink:href="#m17ac1d3309" x="196.213105" y="640.8" style="stroke: #000000; stroke-width: 0.8"/>
      </g>
     </g>
     <g id="text_36">
      <!-- 8 -->
      <g transform="translate(193.031855 655.398438) scale(0.1 -0.1)">
       <use xlink:href="#DejaVuSans-38"/>
      </g>
     </g>
    </g>
    <g id="xtick_19">
     <g id="line2d_63">
      <path d="M 240.132822 640.8 
L 240.132822 388.8 
" clip-path="url(#p419db9e572)" style="fill: none; stroke: #b0b0b0; stroke-width: 0.8; stroke-linecap: square"/>
     </g>
     <g id="line2d_64">
      <g>
       <use xlink:href="#m17ac1d3309" x="240.132822" y="640.8" style="stroke: #000000; stroke-width: 0.8"/>
      </g>
     </g>
     <g id="text_37">
      <!-- 16 -->
      <g transform="translate(233.770322 655.398438) scale(0.1 -0.1)">
       <use xlink:href="#DejaVuSans-31"/>
       <use xlink:href="#DejaVuSans-36" x="63.623047"/>
      </g>
     </g>
    </g>
    <g id="xtick_20">
     <g id="line2d_65">
      <path d="M 284.052538 640.8 
L 284.052538 388.8 
" clip-path="url(#p419db9e572)" style="fill: none; stroke: #b0b0b0; stroke-width: 0.8; stroke-linecap: square"/>
     </g>
     <g id="line2d_66">
      <g>
       <use xlink:href="#m17ac1d3309" x="284.052538" y="640.8" style="stroke: #000000; stroke-width: 0.8"/>
      </g>
     </g>
     <g id="text_38">
      <!-- 24 -->
      <g transform="translate(277.690038 655.398438) scale(0.1 -0.1)">
       <use xlink:href="#DejaVuSans-32"/>
       <use xlink:href="#DejaVuSans-34" x="63.623047"/>
      </g>
     </g>
    </g>
    <g id="xtick_21">
     <g id="line2d_67">
      <path d="M 327.972255 640.8 
L 327.972255 388.8 
" clip-path="url(#p419db9e572)" style="fill: none; stroke: #b0b0b0; stroke-width: 0.8; stroke-linecap: square"/>
     </g>
     <g id="line2d_68">
      <g>
       <use xlink:href="#m17ac1d3309" x="327.972255" y="640.8" style="stroke: #000000; stroke-width: 0.8"/>
      </g>
     </g>
     <g id="text_39">
      <!-- 32 -->
      <g transform="translate(321.609755 655.398438) scale(0.1 -0.1)">
       <use xlink:href="#DejaVuSans-33"/>
       <use xlink:href="#DejaVuSans-32" x="63.623047"/>
      </g>
     </g>
    </g>
    <g id="xtick_22">
     <g id="line2d_69">
      <path d="M 371.891972 640.8 
L 371.891972 388.8 
" clip-path="url(#p419db9e572)" style="fill: none; stroke: #b0b0b0; stroke-width: 0.8; stroke-linecap: square"/>
     </g>
     <g id="line2d_70">
      <g>
       <use xlink:href="#m17ac1d3309" x="371.891972" y="640.8" style="stroke: #000000; stroke-width: 0.8"/>
      </g>
     </g>
     <g id="text_40">
      <!-- 40 -->
      <g transform="translate(365.529472 655.398438) scale(0.1 -0.1)">
       <use xlink:href="#DejaVuSans-34"/>
       <use xlink:href="#DejaVuSans-30" x="63.623047"/>
      </g>
     </g>
    </g>
    <g id="xtick_23">
     <g id="line2d_71">
      <path d="M 415.811688 640.8 
L 415.811688 388.8 
" clip-path="url(#p419db9e572)" style="fill: none; stroke: #b0b0b0; stroke-width: 0.8; stroke-linecap: square"/>
     </g>
     <g id="line2d_72">
      <g>
       <use xlink:href="#m17ac1d3309" x="415.811688" y="640.8" style="stroke: #000000; stroke-width: 0.8"/>
      </g>
     </g>
     <g id="text_41">
      <!-- 48 -->
      <g transform="translate(409.449188 655.398438) scale(0.1 -0.1)">
       <use xlink:href="#DejaVuSans-34"/>
       <use xlink:href="#DejaVuSans-38" x="63.623047"/>
      </g>
     </g>
    </g>
    <g id="xtick_24">
     <g id="line2d_73">
      <path d="M 459.731405 640.8 
L 459.731405 388.8 
" clip-path="url(#p419db9e572)" style="fill: none; stroke: #b0b0b0; stroke-width: 0.8; stroke-linecap: square"/>
     </g>
     <g id="line2d_74">
      <g>
       <use xlink:href="#m17ac1d3309" x="459.731405" y="640.8" style="stroke: #000000; stroke-width: 0.8"/>
      </g>
     </g>
     <g id="text_42">
      <!-- 56 -->
      <g transform="translate(453.368905 655.398438) scale(0.1 -0.1)">
       <use xlink:href="#DejaVuSans-35"/>
       <use xlink:href="#DejaVuSans-36" x="63.623047"/>
      </g>
     </g>
    </g>
    <g id="text_43">
     <!-- Tempo [bit] -->
     <g transform="translate(296.828835 669.076563) scale(0.1 -0.1)">
      <use xlink:href="#DejaVuSans-54"/>
      <use xlink:href="#DejaVuSans-65" x="44.083984"/>
      <use xlink:href="#DejaVuSans-6d" x="105.607422"/>
      <use xlink:href="#DejaVuSans-70" x="203.019531"/>
      <use xlink:href="#DejaVuSans-6f" x="266.496094"/>
      <use xlink:href="#DejaVuSans-20" x="327.677734"/>
      <use xlink:href="#DejaVuSans-5b" x="359.464844"/>
      <use xlink:href="#DejaVuSans-62" x="398.478516"/>
      <use xlink:href="#DejaVuSans-69" x="461.955078"/>
      <use xlink:href="#DejaVuSans-74" x="489.738281"/>
      <use xlink:href="#DejaVuSans-5d" x="528.947266"/>
     </g>
    </g>
   </g>
   <g id="matplotlib.axis_6">
    <g id="ytick_13">
     <g id="line2d_75">
      <path d="M 135 629.345455 
L 515.454545 629.345455 
" clip-path="url(#p419db9e572)" style="fill: none; stroke: #b0b0b0; stroke-width: 0.8; stroke-linecap: square"/>
     </g>
     <g id="line2d_76">
      <g>
       <use xlink:href="#mf0351ac7e5" x="135" y="629.345455" style="stroke: #000000; stroke-width: 0.8"/>
      </g>
     </g>
     <g id="text_44">
      <!-- 0.0 -->
      <g transform="translate(112.096875 633.144673) scale(0.1 -0.1)">
       <use xlink:href="#DejaVuSans-30"/>
       <use xlink:href="#DejaVuSans-2e" x="63.623047"/>
       <use xlink:href="#DejaVuSans-30" x="95.410156"/>
      </g>
     </g>
    </g>
    <g id="ytick_14">
     <g id="line2d_77">
      <path d="M 135 583.527273 
L 515.454545 583.527273 
" clip-path="url(#p419db9e572)" style="fill: none; stroke: #b0b0b0; stroke-width: 0.8; stroke-linecap: square"/>
     </g>
     <g id="line2d_78">
      <g>
       <use xlink:href="#mf0351ac7e5" x="135" y="583.527273" style="stroke: #000000; stroke-width: 0.8"/>
      </g>
     </g>
     <g id="text_45">
      <!-- 0.2 -->
      <g transform="translate(112.096875 587.326491) scale(0.1 -0.1)">
       <use xlink:href="#DejaVuSans-30"/>
       <use xlink:href="#DejaVuSans-2e" x="63.623047"/>
       <use xlink:href="#DejaVuSans-32" x="95.410156"/>
      </g>
     </g>
    </g>
    <g id="ytick_15">
     <g id="line2d_79">
      <path d="M 135 537.709091 
L 515.454545 537.709091 
" clip-path="url(#p419db9e572)" style="fill: none; stroke: #b0b0b0; stroke-width: 0.8; stroke-linecap: square"/>
     </g>
     <g id="line2d_80">
      <g>
       <use xlink:href="#mf0351ac7e5" x="135" y="537.709091" style="stroke: #000000; stroke-width: 0.8"/>
      </g>
     </g>
     <g id="text_46">
      <!-- 0.4 -->
      <g transform="translate(112.096875 541.50831) scale(0.1 -0.1)">
       <use xlink:href="#DejaVuSans-30"/>
       <use xlink:href="#DejaVuSans-2e" x="63.623047"/>
       <use xlink:href="#DejaVuSans-34" x="95.410156"/>
      </g>
     </g>
    </g>
    <g id="ytick_16">
     <g id="line2d_81">
      <path d="M 135 491.890909 
L 515.454545 491.890909 
" clip-path="url(#p419db9e572)" style="fill: none; stroke: #b0b0b0; stroke-width: 0.8; stroke-linecap: square"/>
     </g>
     <g id="line2d_82">
      <g>
       <use xlink:href="#mf0351ac7e5" x="135" y="491.890909" style="stroke: #000000; stroke-width: 0.8"/>
      </g>
     </g>
     <g id="text_47">
      <!-- 0.6 -->
      <g transform="translate(112.096875 495.690128) scale(0.1 -0.1)">
       <use xlink:href="#DejaVuSans-30"/>
       <use xlink:href="#DejaVuSans-2e" x="63.623047"/>
       <use xlink:href="#DejaVuSans-36" x="95.410156"/>
      </g>
     </g>
    </g>
    <g id="ytick_17">
     <g id="line2d_83">
      <path d="M 135 446.072727 
L 515.454545 446.072727 
" clip-path="url(#p419db9e572)" style="fill: none; stroke: #b0b0b0; stroke-width: 0.8; stroke-linecap: square"/>
     </g>
     <g id="line2d_84">
      <g>
       <use xlink:href="#mf0351ac7e5" x="135" y="446.072727" style="stroke: #000000; stroke-width: 0.8"/>
      </g>
     </g>
     <g id="text_48">
      <!-- 0.8 -->
      <g transform="translate(112.096875 449.871946) scale(0.1 -0.1)">
       <use xlink:href="#DejaVuSans-30"/>
       <use xlink:href="#DejaVuSans-2e" x="63.623047"/>
       <use xlink:href="#DejaVuSans-38" x="95.410156"/>
      </g>
     </g>
    </g>
    <g id="ytick_18">
     <g id="line2d_85">
      <path d="M 135 400.254545 
L 515.454545 400.254545 
" clip-path="url(#p419db9e572)" style="fill: none; stroke: #b0b0b0; stroke-width: 0.8; stroke-linecap: square"/>
     </g>
     <g id="line2d_86">
      <g>
       <use xlink:href="#mf0351ac7e5" x="135" y="400.254545" style="stroke: #000000; stroke-width: 0.8"/>
      </g>
     </g>
     <g id="text_49">
      <!-- 1.0 -->
      <g transform="translate(112.096875 404.053764) scale(0.1 -0.1)">
       <use xlink:href="#DejaVuSans-31"/>
       <use xlink:href="#DejaVuSans-2e" x="63.623047"/>
       <use xlink:href="#DejaVuSans-30" x="95.410156"/>
      </g>
     </g>
    </g>
    <g id="text_50">
     <!-- Amplitude [V] -->
     <g transform="translate(106.017187 549.333594) rotate(-90) scale(0.1 -0.1)">
      <use xlink:href="#DejaVuSans-41"/>
      <use xlink:href="#DejaVuSans-6d" x="68.408203"/>
      <use xlink:href="#DejaVuSans-70" x="165.820312"/>
      <use xlink:href="#DejaVuSans-6c" x="229.296875"/>
      <use xlink:href="#DejaVuSans-69" x="257.080078"/>
      <use xlink:href="#DejaVuSans-74" x="284.863281"/>
      <use xlink:href="#DejaVuSans-75" x="324.072266"/>
      <use xlink:href="#DejaVuSans-64" x="387.451172"/>
      <use xlink:href="#DejaVuSans-65" x="450.927734"/>
      <use xlink:href="#DejaVuSans-20" x="512.451172"/>
      <use xlink:href="#DejaVuSans-5b" x="544.238281"/>
      <use xlink:href="#DejaVuSans-56" x="583.251953"/>
      <use xlink:href="#DejaVuSans-5d" x="651.660156"/>
     </g>
    </g>
   </g>
   <g id="line2d_87">
    <path d="M 152.293388 400.254545 
L 152.293388 629.345455 
L 157.783353 629.345455 
L 157.783353 629.345455 
L 163.273318 629.345455 
L 163.273318 629.345455 
L 168.763282 629.345455 
L 168.763282 629.345455 
L 174.253247 629.345455 
L 174.253247 629.345455 
L 179.743211 629.345455 
L 179.743211 629.345455 
L 185.233176 629.345455 
L 185.233176 629.345455 
L 190.72314 629.345455 
L 190.72314 400.254545 
L 196.213105 400.254545 
L 196.213105 400.254545 
L 201.70307 400.254545 
L 201.70307 629.345455 
L 207.193034 629.345455 
L 207.193034 629.345455 
L 212.682999 629.345455 
L 212.682999 400.254545 
L 218.172963 400.254545 
L 218.172963 629.345455 
L 223.662928 629.345455 
L 223.662928 400.254545 
L 229.152893 400.254545 
L 229.152893 400.254545 
L 234.642857 400.254545 
L 234.642857 400.254545 
L 240.132822 400.254545 
L 240.132822 400.254545 
L 245.622786 400.254545 
L 245.622786 400.254545 
L 251.112751 400.254545 
L 251.112751 400.254545 
L 256.602715 400.254545 
L 256.602715 400.254545 
L 262.09268 400.254545 
L 262.09268 629.345455 
L 267.582645 629.345455 
L 267.582645 629.345455 
L 273.072609 629.345455 
L 273.072609 400.254545 
L 278.562574 400.254545 
L 278.562574 400.254545 
L 284.052538 400.254545 
L 284.052538 400.254545 
L 289.542503 400.254545 
L 289.542503 400.254545 
L 295.032468 400.254545 
L 295.032468 400.254545 
L 300.522432 400.254545 
L 300.522432 400.254545 
L 306.012397 400.254545 
L 306.012397 629.345455 
L 311.502361 629.345455 
L 311.502361 629.345455 
L 316.992326 629.345455 
L 316.992326 400.254545 
L 322.48229 400.254545 
L 322.48229 400.254545 
L 327.972255 400.254545 
L 327.972255 400.254545 
L 333.46222 400.254545 
L 333.46222 629.345455 
L 338.952184 629.345455 
L 338.952184 629.345455 
L 344.442149 629.345455 
L 344.442149 400.254545 
L 349.932113 400.254545 
L 349.932113 629.345455 
L 355.422078 629.345455 
L 355.422078 400.254545 
L 360.912043 400.254545 
L 360.912043 400.254545 
L 366.402007 400.254545 
L 366.402007 400.254545 
L 371.891972 400.254545 
L 371.891972 629.345455 
L 377.381936 629.345455 
L 377.381936 629.345455 
L 382.871901 629.345455 
L 382.871901 629.345455 
L 388.361865 629.345455 
L 388.361865 629.345455 
L 393.85183 629.345455 
L 393.85183 629.345455 
L 399.341795 629.345455 
L 399.341795 629.345455 
L 404.831759 629.345455 
L 404.831759 629.345455 
L 410.321724 629.345455 
L 410.321724 629.345455 
L 415.811688 629.345455 
L 415.811688 629.345455 
L 421.301653 629.345455 
L 421.301653 400.254545 
L 426.791617 400.254545 
L 426.791617 400.254545 
L 432.281582 400.254545 
L 432.281582 629.345455 
L 437.771547 629.345455 
L 437.771547 400.254545 
L 443.261511 400.254545 
L 443.261511 629.345455 
L 448.751476 629.345455 
L 448.751476 629.345455 
L 454.24144 629.345455 
L 454.24144 629.345455 
L 459.731405 629.345455 
L 459.731405 629.345455 
L 465.22137 629.345455 
L 465.22137 629.345455 
L 470.711334 629.345455 
L 470.711334 629.345455 
L 476.201299 629.345455 
L 476.201299 629.345455 
L 481.691263 629.345455 
L 481.691263 400.254545 
L 487.181228 400.254545 
L 487.181228 400.254545 
L 492.671192 400.254545 
L 492.671192 629.345455 
L 498.161157 629.345455 
" clip-path="url(#p419db9e572)" style="fill: none; stroke: #0000ff; stroke-width: 2; stroke-linecap: square"/>
   </g>
   <g id="patch_13">
    <path d="M 135 640.8 
L 135 388.8 
" style="fill: none; stroke: #000000; stroke-width: 0.8; stroke-linejoin: miter; stroke-linecap: square"/>
   </g>
   <g id="patch_14">
    <path d="M 515.454545 640.8 
L 515.454545 388.8 
" style="fill: none; stroke: #000000; stroke-width: 0.8; stroke-linejoin: miter; stroke-linecap: square"/>
   </g>
   <g id="patch_15">
    <path d="M 135 640.8 
L 515.454545 640.8 
" style="fill: none; stroke: #000000; stroke-width: 0.8; stroke-linejoin: miter; stroke-linecap: square"/>
   </g>
   <g id="patch_16">
    <path d="M 135 388.8 
L 515.454545 388.8 
" style="fill: none; stroke: #000000; stroke-width: 0.8; stroke-linejoin: miter; stroke-linecap: square"/>
   </g>
   <g id="text_51">
    <!-- Modulação senoide 800 Hz -->
    <g transform="translate(244.48321 382.8) scale(0.12 -0.12)">
     <use xlink:href="#DejaVuSans-4d"/>
     <use xlink:href="#DejaVuSans-6f" x="86.279297"/>
     <use xlink:href="#DejaVuSans-64" x="147.460938"/>
     <use xlink:href="#DejaVuSans-75" x="210.9375"/>
     <use xlink:href="#DejaVuSans-6c" x="274.316406"/>
     <use xlink:href="#DejaVuSans-61" x="302.099609"/>
     <use xlink:href="#DejaVuSans-e7" x="363.378906"/>
     <use xlink:href="#DejaVuSans-e3" x="418.359375"/>
     <use xlink:href="#DejaVuSans-6f" x="479.638672"/>
     <use xlink:href="#DejaVuSans-20" x="540.820312"/>
     <use xlink:href="#DejaVuSans-73" x="572.607422"/>
     <use xlink:href="#DejaVuSans-65" x="624.707031"/>
     <use xlink:href="#DejaVuSans-6e" x="686.230469"/>
     <use xlink:href="#DejaVuSans-6f" x="749.609375"/>
     <use xlink:href="#DejaVuSans-69" x="810.791016"/>
     <use xlink:href="#DejaVuSans-64" x="838.574219"/>
     <use xlink:href="#DejaVuSans-65" x="902.050781"/>
     <use xlink:href="#DejaVuSans-20" x="963.574219"/>
     <use xlink:href="#DejaVuSans-38" x="995.361328"/>
     <use xlink:href="#DejaVuSans-30" x="1058.984375"/>
     <use xlink:href="#DejaVuSans-30" x="1122.607422"/>
     <use xlink:href="#DejaVuSans-20" x="1186.230469"/>
     <use xlink:href="#DejaVuSans-48" x="1218.017578"/>
     <use xlink:href="#DejaVuSans-7a" x="1293.212891"/>
    </g>
   </g>
  </g>
  <g id="axes_4">
   <g id="patch_17">
    <path d="M 591.545455 640.8 
L 972 640.8 
L 972 388.8 
L 591.545455 388.8 
z
" style="fill: #ffffff"/>
   </g>
   <g id="matplotlib.axis_7">
    <g id="xtick_25">
     <g id="line2d_88">
      <path d="M 608.838843 640.8 
L 608.838843 388.8 
" clip-path="url(#pf89f6d6eb2)" style="fill: none; stroke: #b0b0b0; stroke-width: 0.8; stroke-linecap: square"/>
     </g>
     <g id="line2d_89">
      <g>
       <use xlink:href="#m17ac1d3309" x="608.838843" y="640.8" style="stroke: #000000; stroke-width: 0.8"/>
      </g>
     </g>
     <g id="text_52">
      <!-- 0 -->
      <g transform="translate(605.657593 655.398438) scale(0.1 -0.1)">
       <use xlink:href="#DejaVuSans-30"/>
      </g>
     </g>
    </g>
    <g id="xtick_26">
     <g id="line2d_90">
      <path d="M 652.75856 640.8 
L 652.75856 388.8 
" clip-path="url(#pf89f6d6eb2)" style="fill: none; stroke: #b0b0b0; stroke-width: 0.8; stroke-linecap: square"/>
     </g>
     <g id="line2d_91">
      <g>
       <use xlink:href="#m17ac1d3309" x="652.75856" y="640.8" style="stroke: #000000; stroke-width: 0.8"/>
      </g>
     </g>
     <g id="text_53">
      <!-- 8 -->
      <g transform="translate(649.57731 655.398438) scale(0.1 -0.1)">
       <use xlink:href="#DejaVuSans-38"/>
      </g>
     </g>
    </g>
    <g id="xtick_27">
     <g id="line2d_92">
      <path d="M 696.678276 640.8 
L 696.678276 388.8 
" clip-path="url(#pf89f6d6eb2)" style="fill: none; stroke: #b0b0b0; stroke-width: 0.8; stroke-linecap: square"/>
     </g>
     <g id="line2d_93">
      <g>
       <use xlink:href="#m17ac1d3309" x="696.678276" y="640.8" style="stroke: #000000; stroke-width: 0.8"/>
      </g>
     </g>
     <g id="text_54">
      <!-- 16 -->
      <g transform="translate(690.315776 655.398438) scale(0.1 -0.1)">
       <use xlink:href="#DejaVuSans-31"/>
       <use xlink:href="#DejaVuSans-36" x="63.623047"/>
      </g>
     </g>
    </g>
    <g id="xtick_28">
     <g id="line2d_94">
      <path d="M 740.597993 640.8 
L 740.597993 388.8 
" clip-path="url(#pf89f6d6eb2)" style="fill: none; stroke: #b0b0b0; stroke-width: 0.8; stroke-linecap: square"/>
     </g>
     <g id="line2d_95">
      <g>
       <use xlink:href="#m17ac1d3309" x="740.597993" y="640.8" style="stroke: #000000; stroke-width: 0.8"/>
      </g>
     </g>
     <g id="text_55">
      <!-- 24 -->
      <g transform="translate(734.235493 655.398438) scale(0.1 -0.1)">
       <use xlink:href="#DejaVuSans-32"/>
       <use xlink:href="#DejaVuSans-34" x="63.623047"/>
      </g>
     </g>
    </g>
    <g id="xtick_29">
     <g id="line2d_96">
      <path d="M 784.51771 640.8 
L 784.51771 388.8 
" clip-path="url(#pf89f6d6eb2)" style="fill: none; stroke: #b0b0b0; stroke-width: 0.8; stroke-linecap: square"/>
     </g>
     <g id="line2d_97">
      <g>
       <use xlink:href="#m17ac1d3309" x="784.51771" y="640.8" style="stroke: #000000; stroke-width: 0.8"/>
      </g>
     </g>
     <g id="text_56">
      <!-- 32 -->
      <g transform="translate(778.15521 655.398438) scale(0.1 -0.1)">
       <use xlink:href="#DejaVuSans-33"/>
       <use xlink:href="#DejaVuSans-32" x="63.623047"/>
      </g>
     </g>
    </g>
    <g id="xtick_30">
     <g id="line2d_98">
      <path d="M 828.437426 640.8 
L 828.437426 388.8 
" clip-path="url(#pf89f6d6eb2)" style="fill: none; stroke: #b0b0b0; stroke-width: 0.8; stroke-linecap: square"/>
     </g>
     <g id="line2d_99">
      <g>
       <use xlink:href="#m17ac1d3309" x="828.437426" y="640.8" style="stroke: #000000; stroke-width: 0.8"/>
      </g>
     </g>
     <g id="text_57">
      <!-- 40 -->
      <g transform="translate(822.074926 655.398438) scale(0.1 -0.1)">
       <use xlink:href="#DejaVuSans-34"/>
       <use xlink:href="#DejaVuSans-30" x="63.623047"/>
      </g>
     </g>
    </g>
    <g id="xtick_31">
     <g id="line2d_100">
      <path d="M 872.357143 640.8 
L 872.357143 388.8 
" clip-path="url(#pf89f6d6eb2)" style="fill: none; stroke: #b0b0b0; stroke-width: 0.8; stroke-linecap: square"/>
     </g>
     <g id="line2d_101">
      <g>
       <use xlink:href="#m17ac1d3309" x="872.357143" y="640.8" style="stroke: #000000; stroke-width: 0.8"/>
      </g>
     </g>
     <g id="text_58">
      <!-- 48 -->
      <g transform="translate(865.994643 655.398438) scale(0.1 -0.1)">
       <use xlink:href="#DejaVuSans-34"/>
       <use xlink:href="#DejaVuSans-38" x="63.623047"/>
      </g>
     </g>
    </g>
    <g id="xtick_32">
     <g id="line2d_102">
      <path d="M 916.27686 640.8 
L 916.27686 388.8 
" clip-path="url(#pf89f6d6eb2)" style="fill: none; stroke: #b0b0b0; stroke-width: 0.8; stroke-linecap: square"/>
     </g>
     <g id="line2d_103">
      <g>
       <use xlink:href="#m17ac1d3309" x="916.27686" y="640.8" style="stroke: #000000; stroke-width: 0.8"/>
      </g>
     </g>
     <g id="text_59">
      <!-- 56 -->
      <g transform="translate(909.91436 655.398438) scale(0.1 -0.1)">
       <use xlink:href="#DejaVuSans-35"/>
       <use xlink:href="#DejaVuSans-36" x="63.623047"/>
      </g>
     </g>
    </g>
    <g id="text_60">
     <!-- Tempo [bit] -->
     <g transform="translate(753.37429 669.076563) scale(0.1 -0.1)">
      <use xlink:href="#DejaVuSans-54"/>
      <use xlink:href="#DejaVuSans-65" x="44.083984"/>
      <use xlink:href="#DejaVuSans-6d" x="105.607422"/>
      <use xlink:href="#DejaVuSans-70" x="203.019531"/>
      <use xlink:href="#DejaVuSans-6f" x="266.496094"/>
      <use xlink:href="#DejaVuSans-20" x="327.677734"/>
      <use xlink:href="#DejaVuSans-5b" x="359.464844"/>
      <use xlink:href="#DejaVuSans-62" x="398.478516"/>
      <use xlink:href="#DejaVuSans-69" x="461.955078"/>
      <use xlink:href="#DejaVuSans-74" x="489.738281"/>
      <use xlink:href="#DejaVuSans-5d" x="528.947266"/>
     </g>
    </g>
   </g>
   <g id="matplotlib.axis_8">
    <g id="ytick_19">
     <g id="line2d_104">
      <path d="M 591.545455 629.345455 
L 972 629.345455 
" clip-path="url(#pf89f6d6eb2)" style="fill: none; stroke: #b0b0b0; stroke-width: 0.8; stroke-linecap: square"/>
     </g>
     <g id="line2d_105">
      <g>
       <use xlink:href="#mf0351ac7e5" x="591.545455" y="629.345455" style="stroke: #000000; stroke-width: 0.8"/>
      </g>
     </g>
     <g id="text_61">
      <!-- 0.0 -->
      <g transform="translate(568.64233 633.144673) scale(0.1 -0.1)">
       <use xlink:href="#DejaVuSans-30"/>
       <use xlink:href="#DejaVuSans-2e" x="63.623047"/>
       <use xlink:href="#DejaVuSans-30" x="95.410156"/>
      </g>
     </g>
    </g>
    <g id="ytick_20">
     <g id="line2d_106">
      <path d="M 591.545455 583.527273 
L 972 583.527273 
" clip-path="url(#pf89f6d6eb2)" style="fill: none; stroke: #b0b0b0; stroke-width: 0.8; stroke-linecap: square"/>
     </g>
     <g id="line2d_107">
      <g>
       <use xlink:href="#mf0351ac7e5" x="591.545455" y="583.527273" style="stroke: #000000; stroke-width: 0.8"/>
      </g>
     </g>
     <g id="text_62">
      <!-- 0.2 -->
      <g transform="translate(568.64233 587.326491) scale(0.1 -0.1)">
       <use xlink:href="#DejaVuSans-30"/>
       <use xlink:href="#DejaVuSans-2e" x="63.623047"/>
       <use xlink:href="#DejaVuSans-32" x="95.410156"/>
      </g>
     </g>
    </g>
    <g id="ytick_21">
     <g id="line2d_108">
      <path d="M 591.545455 537.709091 
L 972 537.709091 
" clip-path="url(#pf89f6d6eb2)" style="fill: none; stroke: #b0b0b0; stroke-width: 0.8; stroke-linecap: square"/>
     </g>
     <g id="line2d_109">
      <g>
       <use xlink:href="#mf0351ac7e5" x="591.545455" y="537.709091" style="stroke: #000000; stroke-width: 0.8"/>
      </g>
     </g>
     <g id="text_63">
      <!-- 0.4 -->
      <g transform="translate(568.64233 541.50831) scale(0.1 -0.1)">
       <use xlink:href="#DejaVuSans-30"/>
       <use xlink:href="#DejaVuSans-2e" x="63.623047"/>
       <use xlink:href="#DejaVuSans-34" x="95.410156"/>
      </g>
     </g>
    </g>
    <g id="ytick_22">
     <g id="line2d_110">
      <path d="M 591.545455 491.890909 
L 972 491.890909 
" clip-path="url(#pf89f6d6eb2)" style="fill: none; stroke: #b0b0b0; stroke-width: 0.8; stroke-linecap: square"/>
     </g>
     <g id="line2d_111">
      <g>
       <use xlink:href="#mf0351ac7e5" x="591.545455" y="491.890909" style="stroke: #000000; stroke-width: 0.8"/>
      </g>
     </g>
     <g id="text_64">
      <!-- 0.6 -->
      <g transform="translate(568.64233 495.690128) scale(0.1 -0.1)">
       <use xlink:href="#DejaVuSans-30"/>
       <use xlink:href="#DejaVuSans-2e" x="63.623047"/>
       <use xlink:href="#DejaVuSans-36" x="95.410156"/>
      </g>
     </g>
    </g>
    <g id="ytick_23">
     <g id="line2d_112">
      <path d="M 591.545455 446.072727 
L 972 446.072727 
" clip-path="url(#pf89f6d6eb2)" style="fill: none; stroke: #b0b0b0; stroke-width: 0.8; stroke-linecap: square"/>
     </g>
     <g id="line2d_113">
      <g>
       <use xlink:href="#mf0351ac7e5" x="591.545455" y="446.072727" style="stroke: #000000; stroke-width: 0.8"/>
      </g>
     </g>
     <g id="text_65">
      <!-- 0.8 -->
      <g transform="translate(568.64233 449.871946) scale(0.1 -0.1)">
       <use xlink:href="#DejaVuSans-30"/>
       <use xlink:href="#DejaVuSans-2e" x="63.623047"/>
       <use xlink:href="#DejaVuSans-38" x="95.410156"/>
      </g>
     </g>
    </g>
    <g id="ytick_24">
     <g id="line2d_114">
      <path d="M 591.545455 400.254545 
L 972 400.254545 
" clip-path="url(#pf89f6d6eb2)" style="fill: none; stroke: #b0b0b0; stroke-width: 0.8; stroke-linecap: square"/>
     </g>
     <g id="line2d_115">
      <g>
       <use xlink:href="#mf0351ac7e5" x="591.545455" y="400.254545" style="stroke: #000000; stroke-width: 0.8"/>
      </g>
     </g>
     <g id="text_66">
      <!-- 1.0 -->
      <g transform="translate(568.64233 404.053764) scale(0.1 -0.1)">
       <use xlink:href="#DejaVuSans-31"/>
       <use xlink:href="#DejaVuSans-2e" x="63.623047"/>
       <use xlink:href="#DejaVuSans-30" x="95.410156"/>
      </g>
     </g>
    </g>
    <g id="text_67">
     <!-- Amplitude [V] -->
     <g transform="translate(562.562642 549.333594) rotate(-90) scale(0.1 -0.1)">
      <use xlink:href="#DejaVuSans-41"/>
      <use xlink:href="#DejaVuSans-6d" x="68.408203"/>
      <use xlink:href="#DejaVuSans-70" x="165.820312"/>
      <use xlink:href="#DejaVuSans-6c" x="229.296875"/>
      <use xlink:href="#DejaVuSans-69" x="257.080078"/>
      <use xlink:href="#DejaVuSans-74" x="284.863281"/>
      <use xlink:href="#DejaVuSans-75" x="324.072266"/>
      <use xlink:href="#DejaVuSans-64" x="387.451172"/>
      <use xlink:href="#DejaVuSans-65" x="450.927734"/>
      <use xlink:href="#DejaVuSans-20" x="512.451172"/>
      <use xlink:href="#DejaVuSans-5b" x="544.238281"/>
      <use xlink:href="#DejaVuSans-56" x="583.251953"/>
      <use xlink:href="#DejaVuSans-5d" x="651.660156"/>
     </g>
    </g>
   </g>
   <g id="line2d_116">
    <path d="M 608.838843 400.254545 
L 608.838843 629.345455 
L 614.328808 629.345455 
L 614.328808 629.345455 
L 619.818772 629.345455 
L 619.818772 629.345455 
L 625.308737 629.345455 
L 625.308737 629.345455 
L 630.798701 629.345455 
L 630.798701 629.345455 
L 636.288666 629.345455 
L 636.288666 629.345455 
L 641.77863 629.345455 
L 641.77863 629.345455 
L 647.268595 629.345455 
L 647.268595 400.254545 
L 652.75856 400.254545 
L 652.75856 400.254545 
L 658.248524 400.254545 
L 658.248524 629.345455 
L 663.738489 629.345455 
L 663.738489 400.254545 
L 669.228453 400.254545 
L 669.228453 400.254545 
L 674.718418 400.254545 
L 674.718418 629.345455 
L 680.208383 629.345455 
L 680.208383 400.254545 
L 685.698347 400.254545 
L 685.698347 629.345455 
L 691.188312 629.345455 
L 691.188312 629.345455 
L 696.678276 629.345455 
L 696.678276 629.345455 
L 702.168241 629.345455 
L 702.168241 629.345455 
L 707.658205 629.345455 
L 707.658205 629.345455 
L 713.14817 629.345455 
L 713.14817 629.345455 
L 718.638135 629.345455 
L 718.638135 629.345455 
L 724.128099 629.345455 
L 724.128099 629.345455 
L 729.618064 629.345455 
L 729.618064 629.345455 
L 735.108028 629.345455 
L 735.108028 400.254545 
L 740.597993 400.254545 
L 740.597993 400.254545 
L 746.087957 400.254545 
L 746.087957 629.345455 
L 751.577922 629.345455 
L 751.577922 400.254545 
L 757.067887 400.254545 
L 757.067887 400.254545 
L 762.557851 400.254545 
L 762.557851 629.345455 
L 768.047816 629.345455 
L 768.047816 400.254545 
L 773.53778 400.254545 
L 773.53778 629.345455 
L 779.027745 629.345455 
L 779.027745 400.254545 
L 784.51771 400.254545 
L 784.51771 629.345455 
L 790.007674 629.345455 
L 790.007674 629.345455 
L 795.497639 629.345455 
L 795.497639 629.345455 
L 800.987603 629.345455 
L 800.987603 629.345455 
L 806.477568 629.345455 
L 806.477568 629.345455 
L 811.967532 629.345455 
L 811.967532 629.345455 
L 817.457497 629.345455 
L 817.457497 629.345455 
L 822.947462 629.345455 
L 822.947462 629.345455 
L 828.437426 629.345455 
L 828.437426 629.345455 
L 833.927391 629.345455 
L 833.927391 400.254545 
L 839.417355 400.254545 
L 839.417355 629.345455 
L 844.90732 629.345455 
L 844.90732 629.345455 
L 850.397285 629.345455 
L 850.397285 400.254545 
L 855.887249 400.254545 
L 855.887249 629.345455 
L 861.377214 629.345455 
L 861.377214 400.254545 
L 866.867178 400.254545 
L 866.867178 629.345455 
L 872.357143 629.345455 
L 872.357143 629.345455 
L 877.847107 629.345455 
L 877.847107 629.345455 
L 883.337072 629.345455 
L 883.337072 629.345455 
L 888.827037 629.345455 
L 888.827037 629.345455 
L 894.317001 629.345455 
L 894.317001 629.345455 
L 899.806966 629.345455 
L 899.806966 629.345455 
L 905.29693 629.345455 
L 905.29693 629.345455 
L 910.786895 629.345455 
L 910.786895 629.345455 
L 916.27686 629.345455 
L 916.27686 629.345455 
L 921.766824 629.345455 
L 921.766824 400.254545 
L 927.256789 400.254545 
L 927.256789 629.345455 
L 932.746753 629.345455 
L 932.746753 629.345455 
L 938.236718 629.345455 
L 938.236718 400.254545 
L 943.726682 400.254545 
L 943.726682 629.345455 
L 949.216647 629.345455 
L 949.216647 400.254545 
L 954.706612 400.254545 
" clip-path="url(#pf89f6d6eb2)" style="fill: none; stroke: #008000; stroke-width: 2; stroke-linecap: square"/>
   </g>
   <g id="patch_18">
    <path d="M 591.545455 640.8 
L 591.545455 388.8 
" style="fill: none; stroke: #000000; stroke-width: 0.8; stroke-linejoin: miter; stroke-linecap: square"/>
   </g>
   <g id="patch_19">
    <path d="M 972 640.8 
L 972 388.8 
" style="fill: none; stroke: #000000; stroke-width: 0.8; stroke-linejoin: miter; stroke-linecap: square"/>
   </g>
   <g id="patch_20">
    <path d="M 591.545455 640.8 
L 972 640.8 
" style="fill: none; stroke: #000000; stroke-width: 0.8; stroke-linejoin: miter; stroke-linecap: square"/>
   </g>
   <g id="patch_21">
    <path d="M 591.545455 388.8 
L 972 388.8 
" style="fill: none; stroke: #000000; stroke-width: 0.8; stroke-linejoin: miter; stroke-linecap: square"/>
   </g>
   <g id="text_68">
    <!-- Modulação senoide 1000 Hz -->
    <g transform="translate(697.211165 382.8) scale(0.12 -0.12)">
     <use xlink:href="#DejaVuSans-4d"/>
     <use xlink:href="#DejaVuSans-6f" x="86.279297"/>
     <use xlink:href="#DejaVuSans-64" x="147.460938"/>
     <use xlink:href="#DejaVuSans-75" x="210.9375"/>
     <use xlink:href="#DejaVuSans-6c" x="274.316406"/>
     <use xlink:href="#DejaVuSans-61" x="302.099609"/>
     <use xlink:href="#DejaVuSans-e7" x="363.378906"/>
     <use xlink:href="#DejaVuSans-e3" x="418.359375"/>
     <use xlink:href="#DejaVuSans-6f" x="479.638672"/>
     <use xlink:href="#DejaVuSans-20" x="540.820312"/>
     <use xlink:href="#DejaVuSans-73" x="572.607422"/>
     <use xlink:href="#DejaVuSans-65" x="624.707031"/>
     <use xlink:href="#DejaVuSans-6e" x="686.230469"/>
     <use xlink:href="#DejaVuSans-6f" x="749.609375"/>
     <use xlink:href="#DejaVuSans-69" x="810.791016"/>
     <use xlink:href="#DejaVuSans-64" x="838.574219"/>
     <use xlink:href="#DejaVuSans-65" x="902.050781"/>
     <use xlink:href="#DejaVuSans-20" x="963.574219"/>
     <use xlink:href="#DejaVuSans-31" x="995.361328"/>
     <use xlink:href="#DejaVuSans-30" x="1058.984375"/>
     <use xlink:href="#DejaVuSans-30" x="1122.607422"/>
     <use xlink:href="#DejaVuSans-30" x="1186.230469"/>
     <use xlink:href="#DejaVuSans-20" x="1249.853516"/>
     <use xlink:href="#DejaVuSans-48" x="1281.640625"/>
     <use xlink:href="#DejaVuSans-7a" x="1356.835938"/>
    </g>
   </g>
  </g>
 </g>
 <defs>
  <clipPath id="p06c96aebc1">
   <rect x="135" y="86.4" width="380.454545" height="252"/>
  </clipPath>
  <clipPath id="p5ec68e0ac6">
   <rect x="591.545455" y="86.4" width="380.454545" height="252"/>
  </clipPath>
  <clipPath id="p419db9e572">
   <rect x="135" y="388.8" width="380.454545" height="252"/>
  </clipPath>
  <clipPath id="pf89f6d6eb2">
   <rect x="591.545455" y="388.8" width="380.454545" height="252"/>
  </clipPath>
 </defs>
</svg>
