<?xml version="1.0" encoding="utf-8" standalone="no"?>
<!DOCTYPE svg PUBLIC "-//W3C//DTD SVG 1.1//EN"
  "http://www.w3.org/Graphics/SVG/1.1/DTD/svg11.dtd">
<svg xmlns:xlink="http://www.w3.org/1999/xlink" width="720pt" height="360pt" viewBox="0 0 720 360" xmlns="http://www.w3.org/2000/svg" version="1.1">
 <metadata>
  <rdf:RDF xmlns:dc="http://purl.org/dc/elements/1.1/" xmlns:cc="http://creativecommons.org/ns#" xmlns:rdf="http://www.w3.org/1999/02/22-rdf-syntax-ns#">
   <cc:Work>
    <dc:type rdf:resource="http://purl.org/dc/dcmitype/StillImage"/>
    <dc:date>2023-05-09T07:44:59.542226</dc:date>
    <dc:format>image/svg+xml</dc:format>
    <dc:creator>
     <cc:Agent>
      <dc:title>Matplotlib v3.6.0, https://matplotlib.org/</dc:title>
     </cc:Agent>
    </dc:creator>
   </cc:Work>
  </rdf:RDF>
 </metadata>
 <defs>
  <style type="text/css">*{stroke-linejoin: round; stroke-linecap: butt}</style>
 </defs>
 <g id="figure_1">
  <g id="patch_1">
   <path d="M 0 360 
L 720 360 
L 720 0 
L 0 0 
z
" style="fill: #ffffff"/>
  </g>
  <g id="axes_1">
   <g id="patch_2">
    <path d="M 90 320.4 
L 648 320.4 
L 648 43.2 
L 90 43.2 
z
" style="fill: #ffffff"/>
   </g>
   <g id="matplotlib.axis_1">
    <g id="xtick_1">
     <g id="line2d_1">
      <path d="M 115.363636 320.4 
L 115.363636 43.2 
" clip-path="url(#p3f6072692d)" style="fill: none; stroke: #b0b0b0; stroke-width: 0.8; stroke-linecap: square"/>
     </g>
     <g id="line2d_2">
      <defs>
       <path id="m6e25a1ca65" d="M 0 0 
L 0 3.5 
" style="stroke: #000000; stroke-width: 0.8"/>
      </defs>
      <g>
       <use xlink:href="#m6e25a1ca65" x="115.363636" y="320.4" style="stroke: #000000; stroke-width: 0.8"/>
      </g>
     </g>
     <g id="text_1">
      <!-- 0.000 -->
      <g transform="translate(101.049574 334.998438) scale(0.1 -0.1)">
       <defs>
        <path id="DejaVuSans-30" d="M 2034 4250 
Q 1547 4250 1301 3770 
Q 1056 3291 1056 2328 
Q 1056 1369 1301 889 
Q 1547 409 2034 409 
Q 2525 409 2770 889 
Q 3016 1369 3016 2328 
Q 3016 3291 2770 3770 
Q 2525 4250 2034 4250 
z
M 2034 4750 
Q 2819 4750 3233 4129 
Q 3647 3509 3647 2328 
Q 3647 1150 3233 529 
Q 2819 -91 2034 -91 
Q 1250 -91 836 529 
Q 422 1150 422 2328 
Q 422 3509 836 4129 
Q 1250 4750 2034 4750 
z
" transform="scale(0.015625)"/>
        <path id="DejaVuSans-2e" d="M 684 794 
L 1344 794 
L 1344 0 
L 684 0 
L 684 794 
z
" transform="scale(0.015625)"/>
       </defs>
       <use xlink:href="#DejaVuSans-30"/>
       <use xlink:href="#DejaVuSans-2e" x="63.623047"/>
       <use xlink:href="#DejaVuSans-30" x="95.410156"/>
       <use xlink:href="#DejaVuSans-30" x="159.033203"/>
       <use xlink:href="#DejaVuSans-30" x="222.65625"/>
      </g>
     </g>
    </g>
    <g id="xtick_2">
     <g id="line2d_3">
      <path d="M 217.456261 320.4 
L 217.456261 43.2 
" clip-path="url(#p3f6072692d)" style="fill: none; stroke: #b0b0b0; stroke-width: 0.8; stroke-linecap: square"/>
     </g>
     <g id="line2d_4">
      <g>
       <use xlink:href="#m6e25a1ca65" x="217.456261" y="320.4" style="stroke: #000000; stroke-width: 0.8"/>
      </g>
     </g>
     <g id="text_2">
      <!-- 0.001 -->
      <g transform="translate(203.142198 334.998438) scale(0.1 -0.1)">
       <defs>
        <path id="DejaVuSans-31" d="M 794 531 
L 1825 531 
L 1825 4091 
L 703 3866 
L 703 4441 
L 1819 4666 
L 2450 4666 
L 2450 531 
L 3481 531 
L 3481 0 
L 794 0 
L 794 531 
z
" transform="scale(0.015625)"/>
       </defs>
       <use xlink:href="#DejaVuSans-30"/>
       <use xlink:href="#DejaVuSans-2e" x="63.623047"/>
       <use xlink:href="#DejaVuSans-30" x="95.410156"/>
       <use xlink:href="#DejaVuSans-30" x="159.033203"/>
       <use xlink:href="#DejaVuSans-31" x="222.65625"/>
      </g>
     </g>
    </g>
    <g id="xtick_3">
     <g id="line2d_5">
      <path d="M 319.548885 320.4 
L 319.548885 43.2 
" clip-path="url(#p3f6072692d)" style="fill: none; stroke: #b0b0b0; stroke-width: 0.8; stroke-linecap: square"/>
     </g>
     <g id="line2d_6">
      <g>
       <use xlink:href="#m6e25a1ca65" x="319.548885" y="320.4" style="stroke: #000000; stroke-width: 0.8"/>
      </g>
     </g>
     <g id="text_3">
      <!-- 0.002 -->
      <g transform="translate(305.234823 334.998438) scale(0.1 -0.1)">
       <defs>
        <path id="DejaVuSans-32" d="M 1228 531 
L 3431 531 
L 3431 0 
L 469 0 
L 469 531 
Q 828 903 1448 1529 
Q 2069 2156 2228 2338 
Q 2531 2678 2651 2914 
Q 2772 3150 2772 3378 
Q 2772 3750 2511 3984 
Q 2250 4219 1831 4219 
Q 1534 4219 1204 4116 
Q 875 4013 500 3803 
L 500 4441 
Q 881 4594 1212 4672 
Q 1544 4750 1819 4750 
Q 2544 4750 2975 4387 
Q 3406 4025 3406 3419 
Q 3406 3131 3298 2873 
Q 3191 2616 2906 2266 
Q 2828 2175 2409 1742 
Q 1991 1309 1228 531 
z
" transform="scale(0.015625)"/>
       </defs>
       <use xlink:href="#DejaVuSans-30"/>
       <use xlink:href="#DejaVuSans-2e" x="63.623047"/>
       <use xlink:href="#DejaVuSans-30" x="95.410156"/>
       <use xlink:href="#DejaVuSans-30" x="159.033203"/>
       <use xlink:href="#DejaVuSans-32" x="222.65625"/>
      </g>
     </g>
    </g>
    <g id="xtick_4">
     <g id="line2d_7">
      <path d="M 421.641509 320.4 
L 421.641509 43.2 
" clip-path="url(#p3f6072692d)" style="fill: none; stroke: #b0b0b0; stroke-width: 0.8; stroke-linecap: square"/>
     </g>
     <g id="line2d_8">
      <g>
       <use xlink:href="#m6e25a1ca65" x="421.641509" y="320.4" style="stroke: #000000; stroke-width: 0.8"/>
      </g>
     </g>
     <g id="text_4">
      <!-- 0.003 -->
      <g transform="translate(407.327447 334.998438) scale(0.1 -0.1)">
       <defs>
        <path id="DejaVuSans-33" d="M 2597 2516 
Q 3050 2419 3304 2112 
Q 3559 1806 3559 1356 
Q 3559 666 3084 287 
Q 2609 -91 1734 -91 
Q 1441 -91 1130 -33 
Q 819 25 488 141 
L 488 750 
Q 750 597 1062 519 
Q 1375 441 1716 441 
Q 2309 441 2620 675 
Q 2931 909 2931 1356 
Q 2931 1769 2642 2001 
Q 2353 2234 1838 2234 
L 1294 2234 
L 1294 2753 
L 1863 2753 
Q 2328 2753 2575 2939 
Q 2822 3125 2822 3475 
Q 2822 3834 2567 4026 
Q 2313 4219 1838 4219 
Q 1578 4219 1281 4162 
Q 984 4106 628 3988 
L 628 4550 
Q 988 4650 1302 4700 
Q 1616 4750 1894 4750 
Q 2613 4750 3031 4423 
Q 3450 4097 3450 3541 
Q 3450 3153 3228 2886 
Q 3006 2619 2597 2516 
z
" transform="scale(0.015625)"/>
       </defs>
       <use xlink:href="#DejaVuSans-30"/>
       <use xlink:href="#DejaVuSans-2e" x="63.623047"/>
       <use xlink:href="#DejaVuSans-30" x="95.410156"/>
       <use xlink:href="#DejaVuSans-30" x="159.033203"/>
       <use xlink:href="#DejaVuSans-33" x="222.65625"/>
      </g>
     </g>
    </g>
    <g id="xtick_5">
     <g id="line2d_9">
      <path d="M 523.734134 320.4 
L 523.734134 43.2 
" clip-path="url(#p3f6072692d)" style="fill: none; stroke: #b0b0b0; stroke-width: 0.8; stroke-linecap: square"/>
     </g>
     <g id="line2d_10">
      <g>
       <use xlink:href="#m6e25a1ca65" x="523.734134" y="320.4" style="stroke: #000000; stroke-width: 0.8"/>
      </g>
     </g>
     <g id="text_5">
      <!-- 0.004 -->
      <g transform="translate(509.420071 334.998438) scale(0.1 -0.1)">
       <defs>
        <path id="DejaVuSans-34" d="M 2419 4116 
L 825 1625 
L 2419 1625 
L 2419 4116 
z
M 2253 4666 
L 3047 4666 
L 3047 1625 
L 3713 1625 
L 3713 1100 
L 3047 1100 
L 3047 0 
L 2419 0 
L 2419 1100 
L 313 1100 
L 313 1709 
L 2253 4666 
z
" transform="scale(0.015625)"/>
       </defs>
       <use xlink:href="#DejaVuSans-30"/>
       <use xlink:href="#DejaVuSans-2e" x="63.623047"/>
       <use xlink:href="#DejaVuSans-30" x="95.410156"/>
       <use xlink:href="#DejaVuSans-30" x="159.033203"/>
       <use xlink:href="#DejaVuSans-34" x="222.65625"/>
      </g>
     </g>
    </g>
    <g id="xtick_6">
     <g id="line2d_11">
      <path d="M 625.826758 320.4 
L 625.826758 43.2 
" clip-path="url(#p3f6072692d)" style="fill: none; stroke: #b0b0b0; stroke-width: 0.8; stroke-linecap: square"/>
     </g>
     <g id="line2d_12">
      <g>
       <use xlink:href="#m6e25a1ca65" x="625.826758" y="320.4" style="stroke: #000000; stroke-width: 0.8"/>
      </g>
     </g>
     <g id="text_6">
      <!-- 0.005 -->
      <g transform="translate(611.512696 334.998438) scale(0.1 -0.1)">
       <defs>
        <path id="DejaVuSans-35" d="M 691 4666 
L 3169 4666 
L 3169 4134 
L 1269 4134 
L 1269 2991 
Q 1406 3038 1543 3061 
Q 1681 3084 1819 3084 
Q 2600 3084 3056 2656 
Q 3513 2228 3513 1497 
Q 3513 744 3044 326 
Q 2575 -91 1722 -91 
Q 1428 -91 1123 -41 
Q 819 9 494 109 
L 494 744 
Q 775 591 1075 516 
Q 1375 441 1709 441 
Q 2250 441 2565 725 
Q 2881 1009 2881 1497 
Q 2881 1984 2565 2268 
Q 2250 2553 1709 2553 
Q 1456 2553 1204 2497 
Q 953 2441 691 2322 
L 691 4666 
z
" transform="scale(0.015625)"/>
       </defs>
       <use xlink:href="#DejaVuSans-30"/>
       <use xlink:href="#DejaVuSans-2e" x="63.623047"/>
       <use xlink:href="#DejaVuSans-30" x="95.410156"/>
       <use xlink:href="#DejaVuSans-30" x="159.033203"/>
       <use xlink:href="#DejaVuSans-35" x="222.65625"/>
      </g>
     </g>
    </g>
    <g id="text_7">
     <!-- Tempo [s] -->
     <g transform="translate(344.520312 348.676562) scale(0.1 -0.1)">
      <defs>
       <path id="DejaVuSans-54" d="M -19 4666 
L 3928 4666 
L 3928 4134 
L 2272 4134 
L 2272 0 
L 1638 0 
L 1638 4134 
L -19 4134 
L -19 4666 
z
" transform="scale(0.015625)"/>
       <path id="DejaVuSans-65" d="M 3597 1894 
L 3597 1613 
L 953 1613 
Q 991 1019 1311 708 
Q 1631 397 2203 397 
Q 2534 397 2845 478 
Q 3156 559 3463 722 
L 3463 178 
Q 3153 47 2828 -22 
Q 2503 -91 2169 -91 
Q 1331 -91 842 396 
Q 353 884 353 1716 
Q 353 2575 817 3079 
Q 1281 3584 2069 3584 
Q 2775 3584 3186 3129 
Q 3597 2675 3597 1894 
z
M 3022 2063 
Q 3016 2534 2758 2815 
Q 2500 3097 2075 3097 
Q 1594 3097 1305 2825 
Q 1016 2553 972 2059 
L 3022 2063 
z
" transform="scale(0.015625)"/>
       <path id="DejaVuSans-6d" d="M 3328 2828 
Q 3544 3216 3844 3400 
Q 4144 3584 4550 3584 
Q 5097 3584 5394 3201 
Q 5691 2819 5691 2113 
L 5691 0 
L 5113 0 
L 5113 2094 
Q 5113 2597 4934 2840 
Q 4756 3084 4391 3084 
Q 3944 3084 3684 2787 
Q 3425 2491 3425 1978 
L 3425 0 
L 2847 0 
L 2847 2094 
Q 2847 2600 2669 2842 
Q 2491 3084 2119 3084 
Q 1678 3084 1418 2786 
Q 1159 2488 1159 1978 
L 1159 0 
L 581 0 
L 581 3500 
L 1159 3500 
L 1159 2956 
Q 1356 3278 1631 3431 
Q 1906 3584 2284 3584 
Q 2666 3584 2933 3390 
Q 3200 3197 3328 2828 
z
" transform="scale(0.015625)"/>
       <path id="DejaVuSans-70" d="M 1159 525 
L 1159 -1331 
L 581 -1331 
L 581 3500 
L 1159 3500 
L 1159 2969 
Q 1341 3281 1617 3432 
Q 1894 3584 2278 3584 
Q 2916 3584 3314 3078 
Q 3713 2572 3713 1747 
Q 3713 922 3314 415 
Q 2916 -91 2278 -91 
Q 1894 -91 1617 61 
Q 1341 213 1159 525 
z
M 3116 1747 
Q 3116 2381 2855 2742 
Q 2594 3103 2138 3103 
Q 1681 3103 1420 2742 
Q 1159 2381 1159 1747 
Q 1159 1113 1420 752 
Q 1681 391 2138 391 
Q 2594 391 2855 752 
Q 3116 1113 3116 1747 
z
" transform="scale(0.015625)"/>
       <path id="DejaVuSans-6f" d="M 1959 3097 
Q 1497 3097 1228 2736 
Q 959 2375 959 1747 
Q 959 1119 1226 758 
Q 1494 397 1959 397 
Q 2419 397 2687 759 
Q 2956 1122 2956 1747 
Q 2956 2369 2687 2733 
Q 2419 3097 1959 3097 
z
M 1959 3584 
Q 2709 3584 3137 3096 
Q 3566 2609 3566 1747 
Q 3566 888 3137 398 
Q 2709 -91 1959 -91 
Q 1206 -91 779 398 
Q 353 888 353 1747 
Q 353 2609 779 3096 
Q 1206 3584 1959 3584 
z
" transform="scale(0.015625)"/>
       <path id="DejaVuSans-20" transform="scale(0.015625)"/>
       <path id="DejaVuSans-5b" d="M 550 4863 
L 1875 4863 
L 1875 4416 
L 1125 4416 
L 1125 -397 
L 1875 -397 
L 1875 -844 
L 550 -844 
L 550 4863 
z
" transform="scale(0.015625)"/>
       <path id="DejaVuSans-73" d="M 2834 3397 
L 2834 2853 
Q 2591 2978 2328 3040 
Q 2066 3103 1784 3103 
Q 1356 3103 1142 2972 
Q 928 2841 928 2578 
Q 928 2378 1081 2264 
Q 1234 2150 1697 2047 
L 1894 2003 
Q 2506 1872 2764 1633 
Q 3022 1394 3022 966 
Q 3022 478 2636 193 
Q 2250 -91 1575 -91 
Q 1294 -91 989 -36 
Q 684 19 347 128 
L 347 722 
Q 666 556 975 473 
Q 1284 391 1588 391 
Q 1994 391 2212 530 
Q 2431 669 2431 922 
Q 2431 1156 2273 1281 
Q 2116 1406 1581 1522 
L 1381 1569 
Q 847 1681 609 1914 
Q 372 2147 372 2553 
Q 372 3047 722 3315 
Q 1072 3584 1716 3584 
Q 2034 3584 2315 3537 
Q 2597 3491 2834 3397 
z
" transform="scale(0.015625)"/>
       <path id="DejaVuSans-5d" d="M 1947 4863 
L 1947 -844 
L 622 -844 
L 622 -397 
L 1369 -397 
L 1369 4416 
L 622 4416 
L 622 4863 
L 1947 4863 
z
" transform="scale(0.015625)"/>
      </defs>
      <use xlink:href="#DejaVuSans-54"/>
      <use xlink:href="#DejaVuSans-65" x="44.083984"/>
      <use xlink:href="#DejaVuSans-6d" x="105.607422"/>
      <use xlink:href="#DejaVuSans-70" x="203.019531"/>
      <use xlink:href="#DejaVuSans-6f" x="266.496094"/>
      <use xlink:href="#DejaVuSans-20" x="327.677734"/>
      <use xlink:href="#DejaVuSans-5b" x="359.464844"/>
      <use xlink:href="#DejaVuSans-73" x="398.478516"/>
      <use xlink:href="#DejaVuSans-5d" x="450.578125"/>
     </g>
    </g>
   </g>
   <g id="matplotlib.axis_2">
    <g id="ytick_1">
     <g id="line2d_13">
      <path d="M 90 286.8 
L 648 286.8 
" clip-path="url(#p3f6072692d)" style="fill: none; stroke: #b0b0b0; stroke-width: 0.8; stroke-linecap: square"/>
     </g>
     <g id="line2d_14">
      <defs>
       <path id="mf7e283e708" d="M 0 0 
L -3.5 0 
" style="stroke: #000000; stroke-width: 0.8"/>
      </defs>
      <g>
       <use xlink:href="#mf7e283e708" x="90" y="286.8" style="stroke: #000000; stroke-width: 0.8"/>
      </g>
     </g>
     <g id="text_8">
      <!-- −10 -->
      <g transform="translate(61.895313 290.599219) scale(0.1 -0.1)">
       <defs>
        <path id="DejaVuSans-2212" d="M 678 2272 
L 4684 2272 
L 4684 1741 
L 678 1741 
L 678 2272 
z
" transform="scale(0.015625)"/>
       </defs>
       <use xlink:href="#DejaVuSans-2212"/>
       <use xlink:href="#DejaVuSans-31" x="83.789062"/>
       <use xlink:href="#DejaVuSans-30" x="147.412109"/>
      </g>
     </g>
    </g>
    <g id="ytick_2">
     <g id="line2d_15">
      <path d="M 90 234.3 
L 648 234.3 
" clip-path="url(#p3f6072692d)" style="fill: none; stroke: #b0b0b0; stroke-width: 0.8; stroke-linecap: square"/>
     </g>
     <g id="line2d_16">
      <g>
       <use xlink:href="#mf7e283e708" x="90" y="234.3" style="stroke: #000000; stroke-width: 0.8"/>
      </g>
     </g>
     <g id="text_9">
      <!-- −5 -->
      <g transform="translate(68.257812 238.099219) scale(0.1 -0.1)">
       <use xlink:href="#DejaVuSans-2212"/>
       <use xlink:href="#DejaVuSans-35" x="83.789062"/>
      </g>
     </g>
    </g>
    <g id="ytick_3">
     <g id="line2d_17">
      <path d="M 90 181.8 
L 648 181.8 
" clip-path="url(#p3f6072692d)" style="fill: none; stroke: #b0b0b0; stroke-width: 0.8; stroke-linecap: square"/>
     </g>
     <g id="line2d_18">
      <g>
       <use xlink:href="#mf7e283e708" x="90" y="181.8" style="stroke: #000000; stroke-width: 0.8"/>
      </g>
     </g>
     <g id="text_10">
      <!-- 0 -->
      <g transform="translate(76.6375 185.599219) scale(0.1 -0.1)">
       <use xlink:href="#DejaVuSans-30"/>
      </g>
     </g>
    </g>
    <g id="ytick_4">
     <g id="line2d_19">
      <path d="M 90 129.3 
L 648 129.3 
" clip-path="url(#p3f6072692d)" style="fill: none; stroke: #b0b0b0; stroke-width: 0.8; stroke-linecap: square"/>
     </g>
     <g id="line2d_20">
      <g>
       <use xlink:href="#mf7e283e708" x="90" y="129.3" style="stroke: #000000; stroke-width: 0.8"/>
      </g>
     </g>
     <g id="text_11">
      <!-- 5 -->
      <g transform="translate(76.6375 133.099219) scale(0.1 -0.1)">
       <use xlink:href="#DejaVuSans-35"/>
      </g>
     </g>
    </g>
    <g id="ytick_5">
     <g id="line2d_21">
      <path d="M 90 76.8 
L 648 76.8 
" clip-path="url(#p3f6072692d)" style="fill: none; stroke: #b0b0b0; stroke-width: 0.8; stroke-linecap: square"/>
     </g>
     <g id="line2d_22">
      <g>
       <use xlink:href="#mf7e283e708" x="90" y="76.8" style="stroke: #000000; stroke-width: 0.8"/>
      </g>
     </g>
     <g id="text_12">
      <!-- 10 -->
      <g transform="translate(70.275 80.599219) scale(0.1 -0.1)">
       <use xlink:href="#DejaVuSans-31"/>
       <use xlink:href="#DejaVuSans-30" x="63.623047"/>
      </g>
     </g>
    </g>
    <g id="text_13">
     <!-- Amplitude [V] -->
     <g transform="translate(55.815625 216.333594) rotate(-90) scale(0.1 -0.1)">
      <defs>
       <path id="DejaVuSans-41" d="M 2188 4044 
L 1331 1722 
L 3047 1722 
L 2188 4044 
z
M 1831 4666 
L 2547 4666 
L 4325 0 
L 3669 0 
L 3244 1197 
L 1141 1197 
L 716 0 
L 50 0 
L 1831 4666 
z
" transform="scale(0.015625)"/>
       <path id="DejaVuSans-6c" d="M 603 4863 
L 1178 4863 
L 1178 0 
L 603 0 
L 603 4863 
z
" transform="scale(0.015625)"/>
       <path id="DejaVuSans-69" d="M 603 3500 
L 1178 3500 
L 1178 0 
L 603 0 
L 603 3500 
z
M 603 4863 
L 1178 4863 
L 1178 4134 
L 603 4134 
L 603 4863 
z
" transform="scale(0.015625)"/>
       <path id="DejaVuSans-74" d="M 1172 4494 
L 1172 3500 
L 2356 3500 
L 2356 3053 
L 1172 3053 
L 1172 1153 
Q 1172 725 1289 603 
Q 1406 481 1766 481 
L 2356 481 
L 2356 0 
L 1766 0 
Q 1100 0 847 248 
Q 594 497 594 1153 
L 594 3053 
L 172 3053 
L 172 3500 
L 594 3500 
L 594 4494 
L 1172 4494 
z
" transform="scale(0.015625)"/>
       <path id="DejaVuSans-75" d="M 544 1381 
L 544 3500 
L 1119 3500 
L 1119 1403 
Q 1119 906 1312 657 
Q 1506 409 1894 409 
Q 2359 409 2629 706 
Q 2900 1003 2900 1516 
L 2900 3500 
L 3475 3500 
L 3475 0 
L 2900 0 
L 2900 538 
Q 2691 219 2414 64 
Q 2138 -91 1772 -91 
Q 1169 -91 856 284 
Q 544 659 544 1381 
z
M 1991 3584 
L 1991 3584 
z
" transform="scale(0.015625)"/>
       <path id="DejaVuSans-64" d="M 2906 2969 
L 2906 4863 
L 3481 4863 
L 3481 0 
L 2906 0 
L 2906 525 
Q 2725 213 2448 61 
Q 2172 -91 1784 -91 
Q 1150 -91 751 415 
Q 353 922 353 1747 
Q 353 2572 751 3078 
Q 1150 3584 1784 3584 
Q 2172 3584 2448 3432 
Q 2725 3281 2906 2969 
z
M 947 1747 
Q 947 1113 1208 752 
Q 1469 391 1925 391 
Q 2381 391 2643 752 
Q 2906 1113 2906 1747 
Q 2906 2381 2643 2742 
Q 2381 3103 1925 3103 
Q 1469 3103 1208 2742 
Q 947 2381 947 1747 
z
" transform="scale(0.015625)"/>
       <path id="DejaVuSans-56" d="M 1831 0 
L 50 4666 
L 709 4666 
L 2188 738 
L 3669 4666 
L 4325 4666 
L 2547 0 
L 1831 0 
z
" transform="scale(0.015625)"/>
      </defs>
      <use xlink:href="#DejaVuSans-41"/>
      <use xlink:href="#DejaVuSans-6d" x="68.408203"/>
      <use xlink:href="#DejaVuSans-70" x="165.820312"/>
      <use xlink:href="#DejaVuSans-6c" x="229.296875"/>
      <use xlink:href="#DejaVuSans-69" x="257.080078"/>
      <use xlink:href="#DejaVuSans-74" x="284.863281"/>
      <use xlink:href="#DejaVuSans-75" x="324.072266"/>
      <use xlink:href="#DejaVuSans-64" x="387.451172"/>
      <use xlink:href="#DejaVuSans-65" x="450.927734"/>
      <use xlink:href="#DejaVuSans-20" x="512.451172"/>
      <use xlink:href="#DejaVuSans-5b" x="544.238281"/>
      <use xlink:href="#DejaVuSans-56" x="583.251953"/>
      <use xlink:href="#DejaVuSans-5d" x="651.660156"/>
     </g>
    </g>
   </g>
   <g id="line2d_23">
    <path d="M 115.363636 181.8 
L 118.554031 157.218619 
L 121.744425 133.581888 
L 124.93482 111.798151 
L 128.125214 92.704546 
L 131.315609 77.034829 
L 134.506003 65.391179 
L 137.696398 58.221055 
L 140.886792 55.8 
L 144.077187 58.221055 
L 147.267581 65.391179 
L 150.457976 77.034829 
L 153.64837 92.704546 
L 156.838765 111.798151 
L 160.02916 133.581888 
L 163.219554 157.218619 
L 169.600343 206.381381 
L 172.790738 230.018112 
L 175.981132 251.801849 
L 179.171527 270.895454 
L 182.361921 286.565171 
L 185.552316 298.208821 
L 188.74271 305.378945 
L 191.933105 307.8 
L 195.123499 305.378945 
L 198.313894 298.208821 
L 201.504288 286.565171 
L 204.694683 270.895454 
L 207.885077 251.801849 
L 211.075472 230.018112 
L 214.265866 206.381381 
L 220.646655 157.218619 
L 223.83705 133.581888 
L 227.027444 111.798151 
L 230.217839 92.704546 
L 233.408233 77.034829 
L 236.598628 65.391179 
L 239.789022 58.221055 
L 242.979417 55.8 
L 246.169811 58.221055 
L 249.360206 65.391179 
L 252.5506 77.034829 
L 255.740995 92.704546 
L 258.931389 111.798151 
L 262.121784 133.581888 
L 265.312178 157.218619 
L 271.692967 206.381381 
L 274.883362 230.018112 
L 278.073756 251.801849 
L 281.264151 270.895454 
L 284.454545 286.565171 
L 287.64494 298.208821 
L 290.835334 305.378945 
L 294.025729 307.8 
L 297.216123 305.378945 
L 300.406518 298.208821 
L 303.596913 286.565171 
L 306.787307 270.895454 
L 309.977702 251.801849 
L 313.168096 230.018112 
L 316.358491 206.381381 
L 322.73928 157.218619 
L 325.929674 133.581888 
L 329.120069 111.798151 
L 332.310463 92.704546 
L 335.500858 77.034829 
L 338.691252 65.391179 
L 341.881647 58.221055 
L 345.072041 55.8 
L 348.262436 58.221055 
L 351.45283 65.391179 
L 354.643225 77.034829 
L 357.833619 92.704546 
L 361.024014 111.798151 
L 364.214408 133.581888 
L 367.404803 157.218619 
L 373.785592 206.381381 
L 376.975986 230.018112 
L 380.166381 251.801849 
L 383.356775 270.895454 
L 386.54717 286.565171 
L 389.737564 298.208821 
L 392.927959 305.378945 
L 396.118353 307.8 
L 399.308748 305.378945 
L 402.499142 298.208821 
L 405.689537 286.565171 
L 408.879931 270.895454 
L 412.070326 251.801849 
L 415.26072 230.018112 
L 418.451115 206.381381 
L 424.831904 157.218619 
L 428.022298 133.581888 
L 431.212693 111.798151 
L 434.403087 92.704546 
L 437.593482 77.034829 
L 440.783877 65.391179 
L 443.974271 58.221055 
L 447.164666 55.8 
L 450.35506 58.221055 
L 453.545455 65.391179 
L 456.735849 77.034829 
L 459.926244 92.704546 
L 463.116638 111.798151 
L 466.307033 133.581888 
L 469.497427 157.218619 
L 475.878216 206.381381 
L 479.068611 230.018112 
L 482.259005 251.801849 
L 485.4494 270.895454 
L 488.639794 286.565171 
L 491.830189 298.208821 
L 495.020583 305.378945 
L 498.210978 307.8 
L 501.401372 305.378945 
L 504.591767 298.208821 
L 507.782161 286.565171 
L 510.972556 270.895454 
L 514.16295 251.801849 
L 517.353345 230.018112 
L 520.543739 206.381381 
L 526.924528 157.218619 
L 530.114923 133.581888 
L 533.305317 111.798151 
L 536.495712 92.704546 
L 539.686106 77.034829 
L 542.876501 65.391179 
L 546.066895 58.221055 
L 549.25729 55.8 
L 552.447684 58.221055 
L 555.638079 65.391179 
L 558.828473 77.034829 
L 562.018868 92.704546 
L 565.209262 111.798151 
L 568.399657 133.581888 
L 571.590051 157.218619 
L 577.97084 206.381381 
L 581.161235 230.018112 
L 584.35163 251.801849 
L 587.542024 270.895454 
L 590.732419 286.565171 
L 593.922813 298.208821 
L 597.113208 305.378945 
L 600.303602 307.8 
L 603.493997 305.378945 
L 606.684391 298.208821 
L 609.874786 286.565171 
L 613.06518 270.895454 
L 616.255575 251.801849 
L 619.445969 230.018112 
L 622.636364 206.381381 
L 622.636364 206.381381 
" clip-path="url(#p3f6072692d)" style="fill: none; stroke: #008000; stroke-width: 2; stroke-linecap: square"/>
   </g>
   <g id="LineCollection_1">
    <path d="M 115.363636 181.8 
L 115.363636 181.8 
" clip-path="url(#p3f6072692d)" style="fill: none; stroke-dasharray: 1.5,2.475; stroke-dashoffset: 0; stroke: #1f77b4; stroke-width: 1.5"/>
    <path d="M 128.125214 181.8 
L 128.125214 92.704546 
" clip-path="url(#p3f6072692d)" style="fill: none; stroke-dasharray: 1.5,2.475; stroke-dashoffset: 0; stroke: #1f77b4; stroke-width: 1.5"/>
    <path d="M 140.886792 181.8 
L 140.886792 55.8 
" clip-path="url(#p3f6072692d)" style="fill: none; stroke-dasharray: 1.5,2.475; stroke-dashoffset: 0; stroke: #1f77b4; stroke-width: 1.5"/>
    <path d="M 153.64837 181.8 
L 153.64837 92.704546 
" clip-path="url(#p3f6072692d)" style="fill: none; stroke-dasharray: 1.5,2.475; stroke-dashoffset: 0; stroke: #1f77b4; stroke-width: 1.5"/>
    <path d="M 166.409949 181.8 
L 166.409949 181.8 
" clip-path="url(#p3f6072692d)" style="fill: none; stroke-dasharray: 1.5,2.475; stroke-dashoffset: 0; stroke: #1f77b4; stroke-width: 1.5"/>
    <path d="M 179.171527 181.8 
L 179.171527 270.895454 
" clip-path="url(#p3f6072692d)" style="fill: none; stroke-dasharray: 1.5,2.475; stroke-dashoffset: 0; stroke: #1f77b4; stroke-width: 1.5"/>
    <path d="M 191.933105 181.8 
L 191.933105 307.8 
" clip-path="url(#p3f6072692d)" style="fill: none; stroke-dasharray: 1.5,2.475; stroke-dashoffset: 0; stroke: #1f77b4; stroke-width: 1.5"/>
    <path d="M 204.694683 181.8 
L 204.694683 270.895454 
" clip-path="url(#p3f6072692d)" style="fill: none; stroke-dasharray: 1.5,2.475; stroke-dashoffset: 0; stroke: #1f77b4; stroke-width: 1.5"/>
    <path d="M 217.456261 181.8 
L 217.456261 181.8 
" clip-path="url(#p3f6072692d)" style="fill: none; stroke-dasharray: 1.5,2.475; stroke-dashoffset: 0; stroke: #1f77b4; stroke-width: 1.5"/>
    <path d="M 230.217839 181.8 
L 230.217839 92.704546 
" clip-path="url(#p3f6072692d)" style="fill: none; stroke-dasharray: 1.5,2.475; stroke-dashoffset: 0; stroke: #1f77b4; stroke-width: 1.5"/>
    <path d="M 242.979417 181.8 
L 242.979417 55.8 
" clip-path="url(#p3f6072692d)" style="fill: none; stroke-dasharray: 1.5,2.475; stroke-dashoffset: 0; stroke: #1f77b4; stroke-width: 1.5"/>
    <path d="M 255.740995 181.8 
L 255.740995 92.704546 
" clip-path="url(#p3f6072692d)" style="fill: none; stroke-dasharray: 1.5,2.475; stroke-dashoffset: 0; stroke: #1f77b4; stroke-width: 1.5"/>
    <path d="M 268.502573 181.8 
L 268.502573 181.8 
" clip-path="url(#p3f6072692d)" style="fill: none; stroke-dasharray: 1.5,2.475; stroke-dashoffset: 0; stroke: #1f77b4; stroke-width: 1.5"/>
    <path d="M 281.264151 181.8 
L 281.264151 270.895454 
" clip-path="url(#p3f6072692d)" style="fill: none; stroke-dasharray: 1.5,2.475; stroke-dashoffset: 0; stroke: #1f77b4; stroke-width: 1.5"/>
    <path d="M 294.025729 181.8 
L 294.025729 307.8 
" clip-path="url(#p3f6072692d)" style="fill: none; stroke-dasharray: 1.5,2.475; stroke-dashoffset: 0; stroke: #1f77b4; stroke-width: 1.5"/>
    <path d="M 306.787307 181.8 
L 306.787307 270.895454 
" clip-path="url(#p3f6072692d)" style="fill: none; stroke-dasharray: 1.5,2.475; stroke-dashoffset: 0; stroke: #1f77b4; stroke-width: 1.5"/>
    <path d="M 319.548885 181.8 
L 319.548885 181.8 
" clip-path="url(#p3f6072692d)" style="fill: none; stroke-dasharray: 1.5,2.475; stroke-dashoffset: 0; stroke: #1f77b4; stroke-width: 1.5"/>
    <path d="M 332.310463 181.8 
L 332.310463 92.704546 
" clip-path="url(#p3f6072692d)" style="fill: none; stroke-dasharray: 1.5,2.475; stroke-dashoffset: 0; stroke: #1f77b4; stroke-width: 1.5"/>
    <path d="M 345.072041 181.8 
L 345.072041 55.8 
" clip-path="url(#p3f6072692d)" style="fill: none; stroke-dasharray: 1.5,2.475; stroke-dashoffset: 0; stroke: #1f77b4; stroke-width: 1.5"/>
    <path d="M 357.833619 181.8 
L 357.833619 92.704546 
" clip-path="url(#p3f6072692d)" style="fill: none; stroke-dasharray: 1.5,2.475; stroke-dashoffset: 0; stroke: #1f77b4; stroke-width: 1.5"/>
    <path d="M 370.595197 181.8 
L 370.595197 181.8 
" clip-path="url(#p3f6072692d)" style="fill: none; stroke-dasharray: 1.5,2.475; stroke-dashoffset: 0; stroke: #1f77b4; stroke-width: 1.5"/>
    <path d="M 383.356775 181.8 
L 383.356775 270.895454 
" clip-path="url(#p3f6072692d)" style="fill: none; stroke-dasharray: 1.5,2.475; stroke-dashoffset: 0; stroke: #1f77b4; stroke-width: 1.5"/>
    <path d="M 396.118353 181.8 
L 396.118353 307.8 
" clip-path="url(#p3f6072692d)" style="fill: none; stroke-dasharray: 1.5,2.475; stroke-dashoffset: 0; stroke: #1f77b4; stroke-width: 1.5"/>
    <path d="M 408.879931 181.8 
L 408.879931 270.895454 
" clip-path="url(#p3f6072692d)" style="fill: none; stroke-dasharray: 1.5,2.475; stroke-dashoffset: 0; stroke: #1f77b4; stroke-width: 1.5"/>
    <path d="M 421.641509 181.8 
L 421.641509 181.8 
" clip-path="url(#p3f6072692d)" style="fill: none; stroke-dasharray: 1.5,2.475; stroke-dashoffset: 0; stroke: #1f77b4; stroke-width: 1.5"/>
    <path d="M 434.403087 181.8 
L 434.403087 92.704546 
" clip-path="url(#p3f6072692d)" style="fill: none; stroke-dasharray: 1.5,2.475; stroke-dashoffset: 0; stroke: #1f77b4; stroke-width: 1.5"/>
    <path d="M 447.164666 181.8 
L 447.164666 55.8 
" clip-path="url(#p3f6072692d)" style="fill: none; stroke-dasharray: 1.5,2.475; stroke-dashoffset: 0; stroke: #1f77b4; stroke-width: 1.5"/>
    <path d="M 459.926244 181.8 
L 459.926244 92.704546 
" clip-path="url(#p3f6072692d)" style="fill: none; stroke-dasharray: 1.5,2.475; stroke-dashoffset: 0; stroke: #1f77b4; stroke-width: 1.5"/>
    <path d="M 472.687822 181.8 
L 472.687822 181.8 
" clip-path="url(#p3f6072692d)" style="fill: none; stroke-dasharray: 1.5,2.475; stroke-dashoffset: 0; stroke: #1f77b4; stroke-width: 1.5"/>
    <path d="M 485.4494 181.8 
L 485.4494 270.895454 
" clip-path="url(#p3f6072692d)" style="fill: none; stroke-dasharray: 1.5,2.475; stroke-dashoffset: 0; stroke: #1f77b4; stroke-width: 1.5"/>
    <path d="M 498.210978 181.8 
L 498.210978 307.8 
" clip-path="url(#p3f6072692d)" style="fill: none; stroke-dasharray: 1.5,2.475; stroke-dashoffset: 0; stroke: #1f77b4; stroke-width: 1.5"/>
    <path d="M 510.972556 181.8 
L 510.972556 270.895454 
" clip-path="url(#p3f6072692d)" style="fill: none; stroke-dasharray: 1.5,2.475; stroke-dashoffset: 0; stroke: #1f77b4; stroke-width: 1.5"/>
    <path d="M 523.734134 181.8 
L 523.734134 181.8 
" clip-path="url(#p3f6072692d)" style="fill: none; stroke-dasharray: 1.5,2.475; stroke-dashoffset: 0; stroke: #1f77b4; stroke-width: 1.5"/>
    <path d="M 536.495712 181.8 
L 536.495712 92.704546 
" clip-path="url(#p3f6072692d)" style="fill: none; stroke-dasharray: 1.5,2.475; stroke-dashoffset: 0; stroke: #1f77b4; stroke-width: 1.5"/>
    <path d="M 549.25729 181.8 
L 549.25729 55.8 
" clip-path="url(#p3f6072692d)" style="fill: none; stroke-dasharray: 1.5,2.475; stroke-dashoffset: 0; stroke: #1f77b4; stroke-width: 1.5"/>
    <path d="M 562.018868 181.8 
L 562.018868 92.704546 
" clip-path="url(#p3f6072692d)" style="fill: none; stroke-dasharray: 1.5,2.475; stroke-dashoffset: 0; stroke: #1f77b4; stroke-width: 1.5"/>
    <path d="M 574.780446 181.8 
L 574.780446 181.8 
" clip-path="url(#p3f6072692d)" style="fill: none; stroke-dasharray: 1.5,2.475; stroke-dashoffset: 0; stroke: #1f77b4; stroke-width: 1.5"/>
    <path d="M 587.542024 181.8 
L 587.542024 270.895454 
" clip-path="url(#p3f6072692d)" style="fill: none; stroke-dasharray: 1.5,2.475; stroke-dashoffset: 0; stroke: #1f77b4; stroke-width: 1.5"/>
    <path d="M 600.303602 181.8 
L 600.303602 307.8 
" clip-path="url(#p3f6072692d)" style="fill: none; stroke-dasharray: 1.5,2.475; stroke-dashoffset: 0; stroke: #1f77b4; stroke-width: 1.5"/>
    <path d="M 613.06518 181.8 
L 613.06518 270.895454 
" clip-path="url(#p3f6072692d)" style="fill: none; stroke-dasharray: 1.5,2.475; stroke-dashoffset: 0; stroke: #1f77b4; stroke-width: 1.5"/>
   </g>
   <g id="line2d_24">
    <defs>
     <path id="m672b276321" d="M 0 3 
C 0.795609 3 1.55874 2.683901 2.12132 2.12132 
C 2.683901 1.55874 3 0.795609 3 0 
C 3 -0.795609 2.683901 -1.55874 2.12132 -2.12132 
C 1.55874 -2.683901 0.795609 -3 0 -3 
C -0.795609 -3 -1.55874 -2.683901 -2.12132 -2.12132 
C -2.683901 -1.55874 -3 -0.795609 -3 0 
C -3 0.795609 -2.683901 1.55874 -2.12132 2.12132 
C -1.55874 2.683901 -0.795609 3 0 3 
z
" style="stroke: #1f77b4"/>
    </defs>
    <g clip-path="url(#p3f6072692d)">
     <use xlink:href="#m672b276321" x="115.363636" y="181.8" style="fill: #1f77b4; stroke: #1f77b4"/>
     <use xlink:href="#m672b276321" x="128.125214" y="92.704546" style="fill: #1f77b4; stroke: #1f77b4"/>
     <use xlink:href="#m672b276321" x="140.886792" y="55.8" style="fill: #1f77b4; stroke: #1f77b4"/>
     <use xlink:href="#m672b276321" x="153.64837" y="92.704546" style="fill: #1f77b4; stroke: #1f77b4"/>
     <use xlink:href="#m672b276321" x="166.409949" y="181.8" style="fill: #1f77b4; stroke: #1f77b4"/>
     <use xlink:href="#m672b276321" x="179.171527" y="270.895454" style="fill: #1f77b4; stroke: #1f77b4"/>
     <use xlink:href="#m672b276321" x="191.933105" y="307.8" style="fill: #1f77b4; stroke: #1f77b4"/>
     <use xlink:href="#m672b276321" x="204.694683" y="270.895454" style="fill: #1f77b4; stroke: #1f77b4"/>
     <use xlink:href="#m672b276321" x="217.456261" y="181.8" style="fill: #1f77b4; stroke: #1f77b4"/>
     <use xlink:href="#m672b276321" x="230.217839" y="92.704546" style="fill: #1f77b4; stroke: #1f77b4"/>
     <use xlink:href="#m672b276321" x="242.979417" y="55.8" style="fill: #1f77b4; stroke: #1f77b4"/>
     <use xlink:href="#m672b276321" x="255.740995" y="92.704546" style="fill: #1f77b4; stroke: #1f77b4"/>
     <use xlink:href="#m672b276321" x="268.502573" y="181.8" style="fill: #1f77b4; stroke: #1f77b4"/>
     <use xlink:href="#m672b276321" x="281.264151" y="270.895454" style="fill: #1f77b4; stroke: #1f77b4"/>
     <use xlink:href="#m672b276321" x="294.025729" y="307.8" style="fill: #1f77b4; stroke: #1f77b4"/>
     <use xlink:href="#m672b276321" x="306.787307" y="270.895454" style="fill: #1f77b4; stroke: #1f77b4"/>
     <use xlink:href="#m672b276321" x="319.548885" y="181.8" style="fill: #1f77b4; stroke: #1f77b4"/>
     <use xlink:href="#m672b276321" x="332.310463" y="92.704546" style="fill: #1f77b4; stroke: #1f77b4"/>
     <use xlink:href="#m672b276321" x="345.072041" y="55.8" style="fill: #1f77b4; stroke: #1f77b4"/>
     <use xlink:href="#m672b276321" x="357.833619" y="92.704546" style="fill: #1f77b4; stroke: #1f77b4"/>
     <use xlink:href="#m672b276321" x="370.595197" y="181.8" style="fill: #1f77b4; stroke: #1f77b4"/>
     <use xlink:href="#m672b276321" x="383.356775" y="270.895454" style="fill: #1f77b4; stroke: #1f77b4"/>
     <use xlink:href="#m672b276321" x="396.118353" y="307.8" style="fill: #1f77b4; stroke: #1f77b4"/>
     <use xlink:href="#m672b276321" x="408.879931" y="270.895454" style="fill: #1f77b4; stroke: #1f77b4"/>
     <use xlink:href="#m672b276321" x="421.641509" y="181.8" style="fill: #1f77b4; stroke: #1f77b4"/>
     <use xlink:href="#m672b276321" x="434.403087" y="92.704546" style="fill: #1f77b4; stroke: #1f77b4"/>
     <use xlink:href="#m672b276321" x="447.164666" y="55.8" style="fill: #1f77b4; stroke: #1f77b4"/>
     <use xlink:href="#m672b276321" x="459.926244" y="92.704546" style="fill: #1f77b4; stroke: #1f77b4"/>
     <use xlink:href="#m672b276321" x="472.687822" y="181.8" style="fill: #1f77b4; stroke: #1f77b4"/>
     <use xlink:href="#m672b276321" x="485.4494" y="270.895454" style="fill: #1f77b4; stroke: #1f77b4"/>
     <use xlink:href="#m672b276321" x="498.210978" y="307.8" style="fill: #1f77b4; stroke: #1f77b4"/>
     <use xlink:href="#m672b276321" x="510.972556" y="270.895454" style="fill: #1f77b4; stroke: #1f77b4"/>
     <use xlink:href="#m672b276321" x="523.734134" y="181.8" style="fill: #1f77b4; stroke: #1f77b4"/>
     <use xlink:href="#m672b276321" x="536.495712" y="92.704546" style="fill: #1f77b4; stroke: #1f77b4"/>
     <use xlink:href="#m672b276321" x="549.25729" y="55.8" style="fill: #1f77b4; stroke: #1f77b4"/>
     <use xlink:href="#m672b276321" x="562.018868" y="92.704546" style="fill: #1f77b4; stroke: #1f77b4"/>
     <use xlink:href="#m672b276321" x="574.780446" y="181.8" style="fill: #1f77b4; stroke: #1f77b4"/>
     <use xlink:href="#m672b276321" x="587.542024" y="270.895454" style="fill: #1f77b4; stroke: #1f77b4"/>
     <use xlink:href="#m672b276321" x="600.303602" y="307.8" style="fill: #1f77b4; stroke: #1f77b4"/>
     <use xlink:href="#m672b276321" x="613.06518" y="270.895454" style="fill: #1f77b4; stroke: #1f77b4"/>
    </g>
   </g>
   <g id="line2d_25">
    <path d="M 115.363636 181.8 
L 613.06518 181.8 
" clip-path="url(#p3f6072692d)" style="fill: none; stroke: #d62728; stroke-width: 1.5; stroke-linecap: square"/>
   </g>
   <g id="patch_3">
    <path d="M 90 320.4 
L 90 43.2 
" style="fill: none; stroke: #000000; stroke-width: 0.8; stroke-linejoin: miter; stroke-linecap: square"/>
   </g>
   <g id="patch_4">
    <path d="M 648 320.4 
L 648 43.2 
" style="fill: none; stroke: #000000; stroke-width: 0.8; stroke-linejoin: miter; stroke-linecap: square"/>
   </g>
   <g id="patch_5">
    <path d="M 90 320.4 
L 648 320.4 
" style="fill: none; stroke: #000000; stroke-width: 0.8; stroke-linejoin: miter; stroke-linecap: square"/>
   </g>
   <g id="patch_6">
    <path d="M 90 43.2 
L 648 43.2 
" style="fill: none; stroke: #000000; stroke-width: 0.8; stroke-linejoin: miter; stroke-linecap: square"/>
   </g>
   <g id="text_14">
    <!-- Sinal senoidal de 1000 Hz amostrado em 8000.0 Hz -->
    <g transform="translate(213.09375 37.2) scale(0.12 -0.12)">
     <defs>
      <path id="DejaVuSans-53" d="M 3425 4513 
L 3425 3897 
Q 3066 4069 2747 4153 
Q 2428 4238 2131 4238 
Q 1616 4238 1336 4038 
Q 1056 3838 1056 3469 
Q 1056 3159 1242 3001 
Q 1428 2844 1947 2747 
L 2328 2669 
Q 3034 2534 3370 2195 
Q 3706 1856 3706 1288 
Q 3706 609 3251 259 
Q 2797 -91 1919 -91 
Q 1588 -91 1214 -16 
Q 841 59 441 206 
L 441 856 
Q 825 641 1194 531 
Q 1563 422 1919 422 
Q 2459 422 2753 634 
Q 3047 847 3047 1241 
Q 3047 1584 2836 1778 
Q 2625 1972 2144 2069 
L 1759 2144 
Q 1053 2284 737 2584 
Q 422 2884 422 3419 
Q 422 4038 858 4394 
Q 1294 4750 2059 4750 
Q 2388 4750 2728 4690 
Q 3069 4631 3425 4513 
z
" transform="scale(0.015625)"/>
      <path id="DejaVuSans-6e" d="M 3513 2113 
L 3513 0 
L 2938 0 
L 2938 2094 
Q 2938 2591 2744 2837 
Q 2550 3084 2163 3084 
Q 1697 3084 1428 2787 
Q 1159 2491 1159 1978 
L 1159 0 
L 581 0 
L 581 3500 
L 1159 3500 
L 1159 2956 
Q 1366 3272 1645 3428 
Q 1925 3584 2291 3584 
Q 2894 3584 3203 3211 
Q 3513 2838 3513 2113 
z
" transform="scale(0.015625)"/>
      <path id="DejaVuSans-61" d="M 2194 1759 
Q 1497 1759 1228 1600 
Q 959 1441 959 1056 
Q 959 750 1161 570 
Q 1363 391 1709 391 
Q 2188 391 2477 730 
Q 2766 1069 2766 1631 
L 2766 1759 
L 2194 1759 
z
M 3341 1997 
L 3341 0 
L 2766 0 
L 2766 531 
Q 2569 213 2275 61 
Q 1981 -91 1556 -91 
Q 1019 -91 701 211 
Q 384 513 384 1019 
Q 384 1609 779 1909 
Q 1175 2209 1959 2209 
L 2766 2209 
L 2766 2266 
Q 2766 2663 2505 2880 
Q 2244 3097 1772 3097 
Q 1472 3097 1187 3025 
Q 903 2953 641 2809 
L 641 3341 
Q 956 3463 1253 3523 
Q 1550 3584 1831 3584 
Q 2591 3584 2966 3190 
Q 3341 2797 3341 1997 
z
" transform="scale(0.015625)"/>
      <path id="DejaVuSans-48" d="M 628 4666 
L 1259 4666 
L 1259 2753 
L 3553 2753 
L 3553 4666 
L 4184 4666 
L 4184 0 
L 3553 0 
L 3553 2222 
L 1259 2222 
L 1259 0 
L 628 0 
L 628 4666 
z
" transform="scale(0.015625)"/>
      <path id="DejaVuSans-7a" d="M 353 3500 
L 3084 3500 
L 3084 2975 
L 922 459 
L 3084 459 
L 3084 0 
L 275 0 
L 275 525 
L 2438 3041 
L 353 3041 
L 353 3500 
z
" transform="scale(0.015625)"/>
      <path id="DejaVuSans-72" d="M 2631 2963 
Q 2534 3019 2420 3045 
Q 2306 3072 2169 3072 
Q 1681 3072 1420 2755 
Q 1159 2438 1159 1844 
L 1159 0 
L 581 0 
L 581 3500 
L 1159 3500 
L 1159 2956 
Q 1341 3275 1631 3429 
Q 1922 3584 2338 3584 
Q 2397 3584 2469 3576 
Q 2541 3569 2628 3553 
L 2631 2963 
z
" transform="scale(0.015625)"/>
      <path id="DejaVuSans-38" d="M 2034 2216 
Q 1584 2216 1326 1975 
Q 1069 1734 1069 1313 
Q 1069 891 1326 650 
Q 1584 409 2034 409 
Q 2484 409 2743 651 
Q 3003 894 3003 1313 
Q 3003 1734 2745 1975 
Q 2488 2216 2034 2216 
z
M 1403 2484 
Q 997 2584 770 2862 
Q 544 3141 544 3541 
Q 544 4100 942 4425 
Q 1341 4750 2034 4750 
Q 2731 4750 3128 4425 
Q 3525 4100 3525 3541 
Q 3525 3141 3298 2862 
Q 3072 2584 2669 2484 
Q 3125 2378 3379 2068 
Q 3634 1759 3634 1313 
Q 3634 634 3220 271 
Q 2806 -91 2034 -91 
Q 1263 -91 848 271 
Q 434 634 434 1313 
Q 434 1759 690 2068 
Q 947 2378 1403 2484 
z
M 1172 3481 
Q 1172 3119 1398 2916 
Q 1625 2713 2034 2713 
Q 2441 2713 2670 2916 
Q 2900 3119 2900 3481 
Q 2900 3844 2670 4047 
Q 2441 4250 2034 4250 
Q 1625 4250 1398 4047 
Q 1172 3844 1172 3481 
z
" transform="scale(0.015625)"/>
     </defs>
     <use xlink:href="#DejaVuSans-53"/>
     <use xlink:href="#DejaVuSans-69" x="63.476562"/>
     <use xlink:href="#DejaVuSans-6e" x="91.259766"/>
     <use xlink:href="#DejaVuSans-61" x="154.638672"/>
     <use xlink:href="#DejaVuSans-6c" x="215.917969"/>
     <use xlink:href="#DejaVuSans-20" x="243.701172"/>
     <use xlink:href="#DejaVuSans-73" x="275.488281"/>
     <use xlink:href="#DejaVuSans-65" x="327.587891"/>
     <use xlink:href="#DejaVuSans-6e" x="389.111328"/>
     <use xlink:href="#DejaVuSans-6f" x="452.490234"/>
     <use xlink:href="#DejaVuSans-69" x="513.671875"/>
     <use xlink:href="#DejaVuSans-64" x="541.455078"/>
     <use xlink:href="#DejaVuSans-61" x="604.931641"/>
     <use xlink:href="#DejaVuSans-6c" x="666.210938"/>
     <use xlink:href="#DejaVuSans-20" x="693.994141"/>
     <use xlink:href="#DejaVuSans-64" x="725.78125"/>
     <use xlink:href="#DejaVuSans-65" x="789.257812"/>
     <use xlink:href="#DejaVuSans-20" x="850.78125"/>
     <use xlink:href="#DejaVuSans-31" x="882.568359"/>
     <use xlink:href="#DejaVuSans-30" x="946.191406"/>
     <use xlink:href="#DejaVuSans-30" x="1009.814453"/>
     <use xlink:href="#DejaVuSans-30" x="1073.4375"/>
     <use xlink:href="#DejaVuSans-20" x="1137.060547"/>
     <use xlink:href="#DejaVuSans-48" x="1168.847656"/>
     <use xlink:href="#DejaVuSans-7a" x="1244.042969"/>
     <use xlink:href="#DejaVuSans-20" x="1296.533203"/>
     <use xlink:href="#DejaVuSans-61" x="1328.320312"/>
     <use xlink:href="#DejaVuSans-6d" x="1389.599609"/>
     <use xlink:href="#DejaVuSans-6f" x="1487.011719"/>
     <use xlink:href="#DejaVuSans-73" x="1548.193359"/>
     <use xlink:href="#DejaVuSans-74" x="1600.292969"/>
     <use xlink:href="#DejaVuSans-72" x="1639.501953"/>
     <use xlink:href="#DejaVuSans-61" x="1680.615234"/>
     <use xlink:href="#DejaVuSans-64" x="1741.894531"/>
     <use xlink:href="#DejaVuSans-6f" x="1805.371094"/>
     <use xlink:href="#DejaVuSans-20" x="1866.552734"/>
     <use xlink:href="#DejaVuSans-65" x="1898.339844"/>
     <use xlink:href="#DejaVuSans-6d" x="1959.863281"/>
     <use xlink:href="#DejaVuSans-20" x="2057.275391"/>
     <use xlink:href="#DejaVuSans-38" x="2089.0625"/>
     <use xlink:href="#DejaVuSans-30" x="2152.685547"/>
     <use xlink:href="#DejaVuSans-30" x="2216.308594"/>
     <use xlink:href="#DejaVuSans-30" x="2279.931641"/>
     <use xlink:href="#DejaVuSans-2e" x="2343.554688"/>
     <use xlink:href="#DejaVuSans-30" x="2375.341797"/>
     <use xlink:href="#DejaVuSans-20" x="2438.964844"/>
     <use xlink:href="#DejaVuSans-48" x="2470.751953"/>
     <use xlink:href="#DejaVuSans-7a" x="2545.947266"/>
    </g>
   </g>
   <g id="legend_1">
    <g id="patch_7">
     <path d="M 526.479687 197.978125 
L 641 197.978125 
Q 643 197.978125 643 195.978125 
L 643 167.621875 
Q 643 165.621875 641 165.621875 
L 526.479687 165.621875 
Q 524.479687 165.621875 524.479687 167.621875 
L 524.479687 195.978125 
Q 524.479687 197.978125 526.479687 197.978125 
z
" style="fill: #ffffff; opacity: 0.8; stroke: #cccccc; stroke-linejoin: miter"/>
    </g>
    <g id="line2d_26">
     <path d="M 528.479687 173.720312 
L 538.479687 173.720312 
L 548.479687 173.720312 
" style="fill: none; stroke: #008000; stroke-width: 2; stroke-linecap: square"/>
    </g>
    <g id="text_15">
     <!-- Sinal de Entrada -->
     <g transform="translate(556.479687 177.220312) scale(0.1 -0.1)">
      <defs>
       <path id="DejaVuSans-45" d="M 628 4666 
L 3578 4666 
L 3578 4134 
L 1259 4134 
L 1259 2753 
L 3481 2753 
L 3481 2222 
L 1259 2222 
L 1259 531 
L 3634 531 
L 3634 0 
L 628 0 
L 628 4666 
z
" transform="scale(0.015625)"/>
      </defs>
      <use xlink:href="#DejaVuSans-53"/>
      <use xlink:href="#DejaVuSans-69" x="63.476562"/>
      <use xlink:href="#DejaVuSans-6e" x="91.259766"/>
      <use xlink:href="#DejaVuSans-61" x="154.638672"/>
      <use xlink:href="#DejaVuSans-6c" x="215.917969"/>
      <use xlink:href="#DejaVuSans-20" x="243.701172"/>
      <use xlink:href="#DejaVuSans-64" x="275.488281"/>
      <use xlink:href="#DejaVuSans-65" x="338.964844"/>
      <use xlink:href="#DejaVuSans-20" x="400.488281"/>
      <use xlink:href="#DejaVuSans-45" x="432.275391"/>
      <use xlink:href="#DejaVuSans-6e" x="495.458984"/>
      <use xlink:href="#DejaVuSans-74" x="558.837891"/>
      <use xlink:href="#DejaVuSans-72" x="598.046875"/>
      <use xlink:href="#DejaVuSans-61" x="639.160156"/>
      <use xlink:href="#DejaVuSans-64" x="700.439453"/>
      <use xlink:href="#DejaVuSans-61" x="763.916016"/>
     </g>
    </g>
    <g id="line2d_27">
     <path d="M 538.479687 191.898437 
L 538.479687 187.085937 
" style="fill: none; stroke-dasharray: 2.25,3.7125; stroke-dashoffset: 0; stroke: #1f77b4; stroke-width: 1.5"/>
    </g>
    <g id="line2d_28">
     <path d="M 528.479687 191.898437 
L 548.479687 191.898437 
" style="fill: none; stroke: #d62728; stroke-width: 1.5; stroke-linecap: square"/>
    </g>
    <g id="line2d_29">
     <g>
      <use xlink:href="#m672b276321" x="538.479687" y="187.085937" style="fill: #1f77b4; stroke: #1f77b4"/>
     </g>
    </g>
    <g id="text_16">
     <!-- Sinal Amostrado -->
     <g transform="translate(556.479687 191.898437) scale(0.1 -0.1)">
      <use xlink:href="#DejaVuSans-53"/>
      <use xlink:href="#DejaVuSans-69" x="63.476562"/>
      <use xlink:href="#DejaVuSans-6e" x="91.259766"/>
      <use xlink:href="#DejaVuSans-61" x="154.638672"/>
      <use xlink:href="#DejaVuSans-6c" x="215.917969"/>
      <use xlink:href="#DejaVuSans-20" x="243.701172"/>
      <use xlink:href="#DejaVuSans-41" x="275.488281"/>
      <use xlink:href="#DejaVuSans-6d" x="343.896484"/>
      <use xlink:href="#DejaVuSans-6f" x="441.308594"/>
      <use xlink:href="#DejaVuSans-73" x="502.490234"/>
      <use xlink:href="#DejaVuSans-74" x="554.589844"/>
      <use xlink:href="#DejaVuSans-72" x="593.798828"/>
      <use xlink:href="#DejaVuSans-61" x="634.912109"/>
      <use xlink:href="#DejaVuSans-64" x="696.191406"/>
      <use xlink:href="#DejaVuSans-6f" x="759.667969"/>
     </g>
    </g>
   </g>
  </g>
 </g>
 <defs>
  <clipPath id="p3f6072692d">
   <rect x="90" y="43.2" width="558" height="277.2"/>
  </clipPath>
 </defs>
</svg>
